<?xml version="1.0" encoding="UTF-8"?>
<svg version="1.1" xmlns="http://www.w3.org/2000/svg" width="290" height="200">
<path d="M0 0 C7.20988335 6.04848269 13.26831723 12.94810397 19.08300781 20.32470703 C20.07786293 21.58445388 21.07792201 22.84009626 22.08105469 24.09326172 C45.45345865 53.29907662 59.56379941 85.92443374 56.44921875 124.0546875 C54.32200543 136.05652174 48.28841999 147.62690926 38.44921875 155.0546875 C21.20418809 165.84204638 1.87613477 168.96696289 -18.01513672 164.71801758 C-31.84201975 161.35889032 -44.65967967 155.43000535 -57.40234375 149.21484375 C-58.35826416 148.75037842 -59.31418457 148.28591309 -60.29907227 147.80737305 C-62.13932139 146.90648593 -63.97349592 145.99305451 -65.80053711 145.06567383 C-66.62690674 144.65728271 -67.45327637 144.2488916 -68.3046875 143.828125 C-69.02986572 143.46122559 -69.75504395 143.09432617 -70.50219727 142.71630859 C-72.99556255 141.91103867 -74.13700319 142.07891146 -76.55078125 143.0546875 C-78.60316948 144.96674149 -80.51362247 146.88667395 -82.42578125 148.9296875 C-99.6049159 166.66861102 -118.62473489 178.62596139 -143.94335938 179.34033203 C-167.79462648 179.6194426 -192.68647752 172.39604887 -210.2421875 155.58984375 C-224.94556737 139.44349259 -234.37461978 116.06662311 -233.55078125 94.0546875 C-232.22925779 81.29372661 -227.40290156 73.02805412 -217.78393555 64.79223633 C-214.10942743 61.93321432 -210.1799327 59.74894888 -206.05078125 57.6171875 C-204.69533203 56.91505127 -204.69533203 56.91505127 -203.3125 56.19873047 C-191.27586079 50.17423612 -178.08609984 45.05611004 -164.71484375 43.12109375 C-155.4171954 42.03957406 -155.4171954 42.03957406 -147.80908203 37.16552734 C-144.71087091 32.52072462 -142.61085871 27.47692773 -140.52880859 22.31591797 C-132.4736051 3.69203011 -113.42841521 -8.14441649 -95.390625 -15.5078125 C-63.9377218 -27.6841422 -26.41832692 -20.29748884 0 0 Z " fill="#DCE074" transform="translate(233.55078125,20.9453125)"/>
<path d="M0 0 C9.89453689 8.24803624 18.16479753 18.43310096 26.125 28.5 C26.90230469 29.4590625 27.67960938 30.418125 28.48046875 31.40625 C50.0499775 58.56531348 62.86180279 88.31679687 60.125 123.5 C57.97717688 134.37412164 51.08517944 143.18152864 42.125 149.5 C38.5554128 151.44848769 34.9079037 153.01522395 31.125 154.5 C30.40699219 154.809375 29.68898437 155.11875 28.94921875 155.4375 C14.26354803 161.19007911 -2.61453641 158.98538657 -16.71899414 152.89990234 C-21.7434486 150.6712165 -26.75692917 148.42326197 -31.75 146.125 C-32.78705078 145.64893311 -33.82410156 145.17286621 -34.89257812 144.68237305 C-42.63571824 141.11089193 -50.29665677 137.409251 -57.875 133.5 C-57.111875 132.489375 -56.34875 131.47875 -55.5625 130.4375 C-55.01980469 129.70917969 -54.47710937 128.98085937 -53.91796875 128.23046875 C-52.3695328 126.16095301 -50.80800722 124.1040164 -49.23828125 122.05078125 C-38.80256815 108.27679108 -32.07812754 94.43887669 -29.125 77.3125 C-28.99714111 76.57628418 -28.86928223 75.84006836 -28.73754883 75.08154297 C-26.89316678 63.45453778 -27.41488501 51.1568562 -34.37890625 41.17578125 C-40.09805106 34.76974176 -49.70565826 31.15502206 -58.04638672 30.09814453 C-61.54075748 29.92417453 -65.00152091 29.89602343 -68.5 29.9375 C-69.78310059 29.94410645 -71.06620117 29.95071289 -72.38818359 29.95751953 C-87.75226501 30.18172064 -102.77740898 32.84246364 -117.875 35.5 C-120.1948617 35.89070697 -122.51513875 36.27896069 -124.8359375 36.6640625 C-125.81095215 36.82600098 -126.7859668 36.98793945 -127.79052734 37.15478516 C-128.82234131 37.3256665 -128.82234131 37.3256665 -129.875 37.5 C-119.80060196 15.30817593 -103.72063457 0.33555017 -80.875 -8.375 C-54.43588709 -16.96028498 -23.05502996 -17.31850282 0 0 Z " fill="#DCE074" transform="translate(222.875,21.5)"/>
<path d="M0 0 C7.20988335 6.04848269 13.26831723 12.94810397 19.08300781 20.32470703 C20.07786293 21.58445388 21.07792201 22.84009626 22.08105469 24.09326172 C45.45345865 53.29907662 59.56379941 85.92443374 56.44921875 124.0546875 C54.32200543 136.05652174 48.28841999 147.62690926 38.44921875 155.0546875 C21.20418809 165.84204638 1.87613477 168.96696289 -18.01513672 164.71801758 C-31.84201975 161.35889032 -44.65967967 155.43000535 -57.40234375 149.21484375 C-58.35826416 148.75037842 -59.31418457 148.28591309 -60.29907227 147.80737305 C-62.13932139 146.90648593 -63.97349592 145.99305451 -65.80053711 145.06567383 C-66.62690674 144.65728271 -67.45327637 144.2488916 -68.3046875 143.828125 C-69.02986572 143.46122559 -69.75504395 143.09432617 -70.50219727 142.71630859 C-72.99556255 141.91103867 -74.13700319 142.07891146 -76.55078125 143.0546875 C-78.60316948 144.96674149 -80.51362247 146.88667395 -82.42578125 148.9296875 C-99.6049159 166.66861102 -118.62473489 178.62596139 -143.94335938 179.34033203 C-167.79462648 179.6194426 -192.68647752 172.39604887 -210.2421875 155.58984375 C-224.94556737 139.44349259 -234.37461978 116.06662311 -233.55078125 94.0546875 C-232.22925779 81.29372661 -227.40290156 73.02805412 -217.78393555 64.79223633 C-214.10942743 61.93321432 -210.1799327 59.74894888 -206.05078125 57.6171875 C-204.69533203 56.91505127 -204.69533203 56.91505127 -203.3125 56.19873047 C-191.27586079 50.17423612 -178.08609984 45.05611004 -164.71484375 43.12109375 C-155.4171954 42.03957406 -155.4171954 42.03957406 -147.80908203 37.16552734 C-144.71087091 32.52072462 -142.61085871 27.47692773 -140.52880859 22.31591797 C-132.4736051 3.69203011 -113.42841521 -8.14441649 -95.390625 -15.5078125 C-63.9377218 -27.6841422 -26.41832692 -20.29748884 0 0 Z M-125.19433594 13.53222656 C-131.67871339 20.81022833 -136.50023636 29.22651931 -140.55078125 38.0546875 C-138.87101817 37.77649764 -137.19135286 37.49771749 -135.51171875 37.21875 C-134.41053711 37.03602539 -133.30935547 36.85330078 -132.17480469 36.66503906 C-129.76509025 36.25919926 -127.35684629 35.84452645 -124.95019531 35.42089844 C-109.75189346 32.75473882 -94.75347851 30.56453461 -79.30078125 30.4296875 C-78.10791504 30.40696777 -76.91504883 30.38424805 -75.68603516 30.36083984 C-65.56882616 30.44784813 -55.05181137 33.12644763 -46.9765625 39.55859375 C-39.92190554 46.9611516 -38.33738074 56.71572077 -38.42797852 66.56542969 C-39.60760117 90.47682651 -49.00636979 109.24577002 -64.0456543 127.42407227 C-66.91546994 130.79091282 -66.91546994 130.79091282 -67.55078125 135.0546875 C-48.43699504 143.99084438 -48.43699504 143.99084438 -29.23828125 152.7421875 C-28.54814941 153.05607422 -27.85801758 153.36996094 -27.14697266 153.69335938 C-12.58250114 160.18258815 4.48859681 160.99741034 19.59765625 155.67578125 C32.02221802 150.8629503 41.82363455 143.48418772 47.44921875 131.0546875 C49.3955963 125.52991822 49.8008746 120.59010684 49.76171875 114.8046875 C49.7568042 113.93497314 49.75188965 113.06525879 49.74682617 112.16918945 C49.05729176 73.00009872 28.27913057 41.55303077 2.1484375 13.953125 C-0.01413599 11.63094044 -2.00838294 9.27833823 -3.98828125 6.8046875 C-12.52910913 -2.92979826 -23.31045987 -7.73029138 -35.55078125 -10.9453125 C-36.22681396 -11.13005127 -36.90284668 -11.31479004 -37.59936523 -11.50512695 C-43.78398242 -13.06287265 -49.75388567 -13.29343651 -56.11328125 -13.2578125 C-57.1703125 -13.25217285 -58.22734375 -13.2465332 -59.31640625 -13.24072266 C-83.62673281 -12.86688846 -108.16256718 -4.33036018 -125.19433594 13.53222656 Z M-206.55078125 62.0546875 C-207.50855469 62.55871094 -208.46632812 63.06273438 -209.453125 63.58203125 C-218.79413326 68.77787714 -226.00595702 75.50136512 -229.73828125 85.6875 C-232.97187622 99.08826377 -230.20115469 113.20384745 -223.06640625 124.9375 C-213.21301982 138.70176661 -198.59151823 144.05611757 -182.55078125 147.0546875 C-142.31345068 152.90872059 -104.67923815 137.02422301 -72.46875 113.8359375 C-70.07804302 111.98506758 -67.80111218 110.0729401 -65.55078125 108.0546875 C-64.79925781 107.39597656 -64.04773438 106.73726563 -63.2734375 106.05859375 C-53.15876654 96.63552422 -46.82969707 85.10717862 -42.55078125 72.0546875 C-42.30585938 71.36632812 -42.0609375 70.67796875 -41.80859375 69.96875 C-39.30779506 62.39783889 -40.08948837 55.12561439 -43.55078125 48.0546875 C-47.88490797 41.36086957 -53.28773005 38.03208737 -60.55078125 35.0546875 C-61.2365625 34.735 -61.92234375 34.4153125 -62.62890625 34.0859375 C-98.39038473 19.34456469 -173.6974107 44.17294694 -206.55078125 62.0546875 Z " fill="#587138" transform="translate(233.55078125,20.9453125)"/>
<path d="M0 0 C7.02986756 5.62664546 12.88458396 13.85381911 15.74609375 22.41015625 C16.42052617 30.63823176 14.61300119 36.44421506 9.43359375 42.91015625 C1.65396389 51.19031377 -9.4820781 56.25666453 -20.25390625 59.41015625 C-21.43726562 59.76722656 -22.620625 60.12429687 -23.83984375 60.4921875 C-45.83892788 65.8615955 -66.08702987 58.7003565 -85.140625 48.34375 C-88.25390625 46.41015625 -88.25390625 46.41015625 -90.25390625 43.41015625 C-92.00748019 32.14681597 -88.4340725 21.89511018 -82.390625 12.51953125 C-80.46292923 10.00077846 -78.44891274 7.69848094 -76.25390625 5.41015625 C-75.58746094 4.70375 -74.92101562 3.99734375 -74.234375 3.26953125 C-53.31386091 -17.06877929 -22.71943115 -16.02566461 0 0 Z " fill="#5F3514" transform="translate(138.25390625,75.58984375)"/>
<path d="M0 0 C5.55895023 5.55895023 7.52831113 10.93853255 7.83203125 18.6875 C7.80778176 22.87457854 6.97495006 26.65394955 5.6875 30.625 C5.35419678 31.65705566 5.35419678 31.65705566 5.01416016 32.70996094 C0.60907682 45.62560594 -6.68226406 55.48406953 -16.3125 65 C-16.93382812 65.63164062 -17.55515625 66.26328125 -18.1953125 66.9140625 C-34.1801477 82.0387272 -57.46147626 93.65062811 -78.3125 100 C-79.38242188 100.36480469 -80.45234375 100.72960937 -81.5546875 101.10546875 C-105.02906384 108.90211413 -134.75906857 109.11921968 -157.3125 98 C-169.2023359 91.41682399 -176.12478581 82.66712686 -180.625 69.9375 C-183.68954097 59.1864874 -184.02694893 47.94233391 -179.01953125 37.734375 C-164.87644927 15.07955261 -132.1341029 7.5696975 -107.97460938 1.84082031 C-21.42823234 -18.03022786 -21.42823234 -18.03022786 0 0 Z M-66.7746582 -1.85205078 C-72.95262022 -0.5863658 -78.88327491 0.37770344 -85.1875 0.5625 C-95.86924826 0.99203062 -104.69632297 4.18641433 -113.77734375 9.73046875 C-116.67663987 11.18235047 -119.10778544 11.53714037 -122.3125 12 C-141.47750637 16.53245042 -160.49863811 24.9423134 -171.62109375 42.0078125 C-176.09403745 50.39651659 -175.40366942 60.28035511 -172.8125 69.1875 C-167.98692213 81.85886006 -158.74965278 91.34578256 -146.4375 96.875 C-120.87039042 106.46266609 -89.85832892 101.32157919 -65.51953125 90.4765625 C-38.19692214 77.87923644 -11.984331 62.78988438 -0.2578125 33.62890625 C1.46426241 28.83983015 1.90276731 24.75274521 2 19.625 C2.03738281 18.33851562 2.07476562 17.05203125 2.11328125 15.7265625 C1.43916359 9.82648685 -1.68911041 6.06823037 -6.1875 2.375 C-23.30383474 -10.05570365 -47.50446438 -5.80637446 -66.7746582 -1.85205078 Z " fill="#A1B14E" transform="translate(185.3125,63)"/>
<path d="M0 0 C9.89453689 8.24803624 18.16479753 18.43310096 26.125 28.5 C26.90230469 29.4590625 27.67960938 30.418125 28.48046875 31.40625 C50.0499775 58.56531348 62.86180279 88.31679687 60.125 123.5 C57.97717688 134.37412164 51.08517944 143.18152864 42.125 149.5 C38.5554128 151.44848769 34.9079037 153.01522395 31.125 154.5 C30.40699219 154.809375 29.68898437 155.11875 28.94921875 155.4375 C14.26354803 161.19007911 -2.61453641 158.98538657 -16.71899414 152.89990234 C-21.7434486 150.6712165 -26.75692917 148.42326197 -31.75 146.125 C-32.78705078 145.64893311 -33.82410156 145.17286621 -34.89257812 144.68237305 C-42.63571824 141.11089193 -50.29665677 137.409251 -57.875 133.5 C-57.215 132.51 -56.555 131.52 -55.875 130.5 C-50.5137083 131.10420906 -46.13404631 132.91570538 -41.25 135.0625 C-39.56448078 135.78803707 -37.87825791 136.51194123 -36.19140625 137.234375 C-35.3214502 137.60755859 -34.45149414 137.98074219 -33.55517578 138.36523438 C-29.12352385 140.24156141 -24.65770146 142.03037521 -20.1875 143.8125 C-18.96909424 144.29988647 -18.96909424 144.29988647 -17.72607422 144.79711914 C-16.17365527 145.41548813 -14.61869054 146.02751092 -13.06103516 146.63256836 C-11.66322837 147.18722634 -10.27571217 147.76906346 -8.90380859 148.38500977 C-3.23064687 150.82119993 2.00629629 150.91670136 8.125 150.8125 C9.07117188 150.81572266 10.01734375 150.81894531 10.9921875 150.82226562 C16.71761921 150.77865084 21.63829504 150.13534619 27.125 148.5 C27.98867187 148.25121094 28.85234375 148.00242188 29.7421875 147.74609375 C38.06955072 144.76380277 45.4894064 139.29266394 49.625 131.3125 C50.17052006 130.06053146 50.66709917 128.7866018 51.125 127.5 C51.46289551 126.59443359 51.80079102 125.68886719 52.14892578 124.75585938 C57.73728218 106.11495869 53.10164883 83.00930341 44.24658203 66.08813477 C43.22598194 64.21331147 42.18399272 62.35336774 41.125 60.5 C40.34189453 59.12521484 40.34189453 59.12521484 39.54296875 57.72265625 C31.3326137 44.23273111 21.30919679 31.54715961 11.125 19.5 C10.32835937 18.46746094 10.32835937 18.46746094 9.515625 17.4140625 C-1.06026905 4.16801698 -17.40563458 -3.87182011 -34 -6.125 C-35.62322001 -6.27131065 -37.24864745 -6.39404067 -38.875 -6.5 C-39.87015625 -6.56574219 -40.8653125 -6.63148437 -41.890625 -6.69921875 C-63.56225533 -7.43000628 -88.06256996 0.01092514 -104.625 14.0625 C-109.77762335 18.95899879 -113.39558679 24.43140324 -117 30.49609375 C-120.53862616 36.16526774 -120.53862616 36.16526774 -123.91796875 37.01171875 C-125.90364583 37.17447917 -127.88932292 37.33723958 -129.875 37.5 C-120.49513223 16.3381032 -105.43493745 2.20643543 -84.296875 -7.0703125 C-57.38978551 -17.32940827 -23.825601 -17.89734122 0 0 Z " fill="#A2B24F" transform="translate(222.875,21.5)"/>
<path d="M0 0 C5.92374686 3.15092918 10.83698188 7.36060463 15.38671875 12.26953125 C15.83402344 12.71167969 16.28132813 13.15382813 16.7421875 13.609375 C26.34119668 23.72307636 31.10503017 36.31481902 30.79296875 50.078125 C30.24602367 58.67102291 25.50530744 66.29748187 19.140625 71.93359375 C11.86201854 77.4776548 4.10810603 76.57259104 -4.61328125 76.26953125 C-4.28714844 75.32335937 -3.96101563 74.3771875 -3.625 73.40234375 C-1.13558408 65.9569609 0.9000363 58.58133979 2.19921875 50.83203125 C2.32272705 50.11225098 2.44623535 49.3924707 2.57348633 48.65087891 C4.38042699 37.09865521 3.79098558 24.84634395 -3.1171875 14.9453125 C-5.8599067 11.87318055 -8.93215909 10.05277382 -12.61328125 8.26953125 C-13.35835937 7.88796875 -14.1034375 7.50640625 -14.87109375 7.11328125 C-23.97147178 3.11938493 -33.84176724 3.46094191 -43.61328125 3.26953125 C-43.61328125 2.93953125 -43.61328125 2.60953125 -43.61328125 2.26953125 C-42.57429687 2.24375 -41.5353125 2.21796875 -40.46484375 2.19140625 C-32.90699818 1.91454546 -26.86092795 1.31736996 -19.90234375 -1.859375 C-13.07726298 -4.4566327 -6.46226926 -2.87099246 0 0 Z " fill="#A2B24F" transform="translate(191.61328125,47.73046875)"/>
<path d="M0 0 C-0.33 0.66 -0.66 1.32 -1 2 C-4.0625 2.625 -4.0625 2.625 -7 3 C-7 2.01 -7 1.02 -7 0 C-3.98968256 -0.93423645 -3.13349732 -1.04449911 0 0 Z " fill="#9AA649" transform="translate(94,63)"/>
</svg>
