<svg xmlns="http://www.w3.org/2000/svg" width="512" height="512" style="shape-rendering:geometricPrecision;text-rendering:geometricPrecision;image-rendering:optimizeQuality;fill-rule:evenodd;clip-rule:evenodd"><path fill="#e8e8df" d="M67.5-.5h274c0 .667.333 1 1 1v109h109c.994 81.959 1.328 163.959 1 246h-394c-.167-114.667 0-229.334.5-344 1.149-5.333 3.982-9.333 8.5-12Z" style="opacity:.998"/><path fill="#d9d7ca" d="M342.5.5c36.667 36 73 72.333 109 109h-109V.5Z" style="opacity:1"/><path fill="#9777a8" d="M180.5 109.5c11.15-2.342 15.983 1.992 14.5 13-2.607 4.246-6.44 6.079-11.5 5.5-2.881 1.251-4.714 3.417-5.5 6.5l-1 47c-2.299 7.266-6.133 13.599-11.5 19 5.354 5.368 9.187 11.701 11.5 19a641.88 641.88 0 0 0 2 49 6.978 6.978 0 0 0 2.5 3.5 28.946 28.946 0 0 0 10 3c4.288 3.771 5.121 8.271 2.5 13.5-17.003 5.493-28.337-.507-34-18l-1-47c-3.827-9.671-10.994-14.504-21.5-14.5-6.657-5.619-6.657-11.286 0-17 10.731.244 17.898-4.589 21.5-14.5l1-47a40.875 40.875 0 0 1 7-13c4.227-3.354 8.727-6.021 13.5-8Z" style="opacity:1"/><path fill="#9778a8" d="M311.5 109.5c15.454-.717 25.621 6.283 30.5 21 .043 16.733.71 33.4 2 50 4.344 8.093 11.178 11.926 20.5 11.5 5.797 4.543 6.464 9.709 2 15.5a69.296 69.296 0 0 1-13 3.5c-4.755 2.667-8.255 6.501-10.5 11.5l-1 45c-2.287 14.955-10.953 22.955-26 24-6.066.106-9.566-2.894-10.5-9 2.5-6.928 7.5-10.428 15-10.5a6.978 6.978 0 0 0 2.5-3.5 641.88 641.88 0 0 0 2-49c2.299-7.266 6.133-13.599 11.5-19-5.367-5.401-9.201-11.734-11.5-19l-1-47c-2.405-5.4-6.572-7.9-12.5-7.5-7.798-5.96-7.798-11.793 0-17.5Z" style="opacity:1"/><path fill="#9878a8" d="M245.5 155.5c15.865-.979 21.365 6.021 16.5 21-8.02 8.189-15.686 7.855-23-1-3.592-8.666-1.426-15.332 6.5-20Z" style="opacity:1"/><path fill="#997aa9" d="M246.5 219.5c6.615-1.445 11.115.889 13.5 7 .667 10 .667 20 0 30-2.32 7.636-7.153 9.803-14.5 6.5-1.817-1.8-2.984-3.966-3.5-6.5a240.38 240.38 0 0 1 0-31 40.775 40.775 0 0 1 4.5-6Z" style="opacity:1"/><path fill="#b7a4be" d="M58.5 355.5h394v146h-1v-145h-392v145h-1v-146Z" style="opacity:.812"/><path fill="#9777a8" d="M451.5 501.5c-.563 2.795-1.896 5.128-4 7a10.165 10.165 0 0 1-3 3h-378a10.177 10.177 0 0 1-3-3c-2.104-1.872-3.437-4.205-4-7v-145h392v145Z" style="opacity:1"/><path fill="#fefdfe" d="M154.5 464.5c-1.789 12.617-9.123 19.117-22 19.5-12.316 1.421-23.649-1.246-34-8a168.065 168.065 0 0 0 7-9.5c8.12 4.558 16.787 6.058 26 4.5 5.047-1.21 7.713-4.377 8-9.5a1260.363 1260.363 0 0 0 1-71h14v74Z" style="opacity:1"/><path fill="#d5c8dc" d="M154.5 464.5v-74h-14c.331 23.839-.002 47.506-1 71v-72h16c.331 25.172-.002 50.172-1 75Z" style="opacity:1"/><path fill="#fcfcfd" d="M197.5 390.5a94.41 94.41 0 0 1 20 1.5c3.039.353 5.705 1.52 8 3.5a128.436 128.436 0 0 1-5 9.5c-6.537-1.37-13.204-1.703-20-1-8.662 3.664-11.162 9.83-7.5 18.5 6.455 6.148 13.955 10.648 22.5 13.5 14.944 9.347 18.11 21.847 9.5 37.5-9.626 9.383-21.126 12.883-34.5 10.5a86.35 86.35 0 0 1-10-3c-1.827-.899-3.16-2.233-4-4a67.88 67.88 0 0 1 3-9.5c8.493 4.512 17.493 6.012 27 4.5 8.806-4.749 10.972-11.583 6.5-20.5a215.86 215.86 0 0 0-26.5-16.5c-9.449-8.879-11.616-19.379-6.5-31.5 4.38-6.425 10.213-10.759 17.5-13Z" style="opacity:1"/><path fill="#fcfbfc" d="M273.5 390.5c24.816-2.339 39.983 8.661 45.5 33 3.285 16.742.618 32.408-8 47-14.244 15.376-30.744 18.209-49.5 8.5-7.756-5.666-12.922-13.166-15.5-22.5-4.533-16.547-3.2-32.547 4-48 5.739-8.926 13.572-14.926 23.5-18Z" style="opacity:1"/><path fill="#fefdfe" d="M391.5 453.5c.283.789.783 1.456 1.5 2 .5-20.997.667-41.997.5-63h14v91h-15l-34-60c-.283-.789-.783-1.456-1.5-2a1983.68 1983.68 0 0 0-.5 63h-15v-93a62.792 62.792 0 0 1 15.5 1c11.512 20.361 23.012 40.694 34.5 61Z" style="opacity:1"/><path fill="#e4dce9" d="M392.5 392.5h1c.167 21.003 0 42.003-.5 63-.717-.544-1.217-1.211-1.5-2a931.31 931.31 0 0 0 1-61Z" style="opacity:1"/><path fill="#cbbcd4" d="M392.5 392.5c5.14-.988 10.474-1.321 16-1v93c-5.526.321-10.86-.012-16-1h15v-91h-15Z" style="opacity:1"/><path fill="#9777a8" d="M274.5 403.5c14.4-2.417 23.9 3.25 28.5 17a98.588 98.588 0 0 1 0 34c-5.863 16.28-16.697 21.113-32.5 14.5-6.27-5.372-9.77-12.205-10.5-20.5a110.656 110.656 0 0 1 1-28c2.146-7.635 6.646-13.302 13.5-17Z" style="opacity:1"/><path fill="#a488b3" d="m358.5 423.5-2 61c-.167-21.003 0-42.003.5-63 .717.544 1.217 1.211 1.5 2Z" style="opacity:1"/><path fill="#e3e0db" d="M58.5 501.5h1c.563 2.795 1.896 5.128 4 7-3.358-1.027-5.025-3.36-5-7Z" style="opacity:.275"/><path fill="#e2e0db" d="M451.5 501.5h1c.025 3.64-1.642 5.973-5 7 2.104-1.872 3.437-4.205 4-7Z" style="opacity:.031"/></svg>