<svg xmlns="http://www.w3.org/2000/svg" width="626" height="477" style="shape-rendering:geometricPrecision;text-rendering:geometricPrecision;image-rendering:optimizeQuality;fill-rule:evenodd;clip-rule:evenodd"><path fill="#395181" d="M93.5.5a2001.777 2001.777 0 0 1 80 71c-61.189 61.081-80.022 133.415-56.5 217a228.767 228.767 0 0 0 19 41c9.164-7.166 17.664-15 25.5-23.5-29.076-58.846-27.243-116.68 5.5-173.5 9.192-14.195 20.192-26.862 33-38a9911.653 9911.653 0 0 1 74.5 68c-23.989 16.647-35.156 39.647-33.5 69 4.452 29.621 20.619 49.955 48.5 61a949.48 949.48 0 0 1 3 34c-35.65-7.578-61.15-27.912-76.5-61-13.931-35.876-10.431-69.876 10.5-102a313.027 313.027 0 0 0-22-20c-23.053 30.547-31.553 64.88-25.5 103 4.521 24.703 14.688 46.703 30.5 66a7986.728 7986.728 0 0 1-78.5 71c-45.909-53.403-65.575-115.403-59-186 5.456-47.079 22.956-88.912 52.5-125.5a793.635 793.635 0 0 0-25-22.5C57.858 99.904 36.858 158.071 36.5 224c1.002 69.033 23.669 129.7 68 182A231.096 231.096 0 0 1 78 430.5c-65.302-77.519-89.302-166.519-72-267C19 100.147 48.167 45.814 93.5.5Zm532 221v4c-1.613 77.867-27.779 146.2-78.5 205a422.952 422.952 0 0 0-26-23c-.315-1.408.018-2.741 1-4 56.057-67.211 76.724-144.211 62-231-8.979-45.949-28.146-86.949-57.5-123a160.593 160.593 0 0 0-25 22.5c53.847 71.582 66.68 150.082 38.5 235.5-10.523 28.142-25.523 53.476-45 76a12602.484 12602.484 0 0 0-79.5-71c37.366-48.33 42.533-99.997 15.5-155a158.12 158.12 0 0 0-9.5-14 266.761 266.761 0 0 0-15 12.5 39.591 39.591 0 0 0-7 8c23.048 37.99 23.881 76.49 2.5 115.5-16.126 24.66-38.626 40.327-67.5 47l-2-1a679.553 679.553 0 0 0 3-34c27.103-9.956 43.27-29.289 48.5-58 2.701-30.427-8.466-54.26-33.5-71.5L426 94.5c52.975 50.886 69.642 111.886 50 183a278.365 278.365 0 0 1-12.5 29 1518.527 1518.527 0 0 1 25.5 23c32.878-57.117 38.211-116.784 16-179-11.87-30.417-29.703-56.75-53.5-79A12618.143 12618.143 0 0 0 531 .5c60.537 61.072 92.037 134.739 94.5 221Z" style="opacity:.986"/><path fill="#f27716" d="M313.5 476.5h-1a52212.069 52212.069 0 0 1-16-211l-1-4c-15.418-7.653-23.418-20.153-24-37.5 2.309-25.143 15.975-38.643 41-40.5 21.708.871 35.208 11.871 40.5 33 2.702 20.599-5.131 35.599-23.5 45a12547.701 12547.701 0 0 0-16 215Z" style="opacity:.983"/></svg>