<?xml version="1.0" encoding="UTF-8"?>
<svg version="1.1" xmlns="http://www.w3.org/2000/svg" width="189" height="188">
<path d="M0 0 C19.14 0 38.28 0 58 0 C58 19.14 58 38.28 58 58 C38.86 58 19.72 58 0 58 C0 38.86 0 19.72 0 0 Z M24 11 C24 22.88 24 34.76 24 47 C26.97 47 29.94 47 33 47 C33 35.12 33 23.24 33 11 C30.03 11 27.06 11 24 11 Z " fill="#F47A3D" transform="translate(65,1)"/>
<path d="M0 0 C19.14 0 38.28 0 58 0 C58 19.14 58 38.28 58 58 C38.86 58 19.72 58 0 58 C0 38.86 0 19.72 0 0 Z M13 11 C13 13.31 13 15.62 13 18 C16.63 18 20.26 18 24 18 C24 27.57 24 37.14 24 47 C26.97 47 29.94 47 33 47 C33 37.43 33 27.86 33 18 C36.63 18 40.26 18 44 18 C44 15.69 44 13.38 44 11 C33.77 11 23.54 11 13 11 Z " fill="#F04A2C" transform="translate(0,1)"/>
<path d="M0 0 C19.14 0 38.28 0 58 0 C58 18.81 58 37.62 58 57 C38.86 57 19.72 57 0 57 C0 38.19 0 19.38 0 0 Z M17.125 17.625 C13.96655798 22.64134909 12.46600555 27.52077842 13.37890625 33.46875 C15.25111525 39.88775229 18.33725373 43.48588938 24.1875 46.8125 C29.95089783 48.6076567 35.34727861 48.84887084 41.125 47 C42.053125 46.505 42.053125 46.505 43 46 C42.67 44.02 42.34 42.04 42 40 C41.43152344 40.10699219 40.86304687 40.21398437 40.27734375 40.32421875 C34.47877122 41.22449796 31.12466725 40.92838128 26 38 C23.01634336 33.52451504 23.40966981 29.24397208 24 24 C25.4375 20.875 25.4375 20.875 28 19 C32.56963674 17.88316714 37.31423738 17.84884637 42 18 C42.33 16.02 42.66 14.04 43 12 C33.2537584 8.7512528 24.51515533 10.87746688 17.125 17.625 Z " fill="#0D67B2" transform="translate(0,131)"/>
<path d="M0 0 C19.14 0 38.28 0 58 0 C58 19.14 58 38.28 58 58 C38.86 58 19.72 58 0 58 C0 38.86 0 19.72 0 0 Z M16 11 C16 22.88 16 34.76 16 47 C24.25 47 32.5 47 41 47 C41 45.02 41 43.04 41 41 C35.72 41 30.44 41 25 41 C25 38.03 25 35.06 25 32 C29.95 32 34.9 32 40 32 C40 30.02 40 28.04 40 26 C35.05 26 30.1 26 25 26 C25 23.36 25 20.72 25 18 C29.95 18 34.9 18 40 18 C40 15.69 40 13.38 40 11 C32.08 11 24.16 11 16 11 Z " fill="#90C73E" transform="translate(65,66)"/>
<path d="M0 0 C19.14 0 38.28 0 58 0 C58 19.14 58 38.28 58 58 C38.86 58 19.72 58 0 58 C0 38.86 0 19.72 0 0 Z M13 11 C13 22.88 13 34.76 13 47 C15.97 47 18.94 47 22 47 C22.33 42.38 22.66 37.76 23 33 C24.01707031 34.5159375 24.01707031 34.5159375 25.0546875 36.0625 C29.82502642 43.44913578 29.82502642 43.44913578 36.95703125 47.9296875 C39.44386559 47.87987966 41.60401956 47.65486667 44 47 C42.44904419 43.37830859 40.23134948 40.87481981 37.5625 38 C34.87341115 35.09383478 32.31438774 32.21484084 30 29 C31.29368022 26.17299814 32.67996487 24.05007292 34.8203125 21.80078125 C35.35527344 21.23166016 35.89023437 20.66253906 36.44140625 20.07617188 C36.99699219 19.49416016 37.55257812 18.91214844 38.125 18.3125 C41.9292789 14.97135919 41.9292789 14.97135919 44 11 C40.48180441 10.33896116 37.50317078 10.18858596 34 11 C29.49824483 14.67586926 26.20689996 19.18965006 23 24 C22.67 19.71 22.34 15.42 22 11 C19.03 11 16.06 11 13 11 Z " fill="#25B45C" transform="translate(0,66)"/>
<path d="M0 0 C19.14 0 38.28 0 58 0 C58 19.14 58 38.28 58 58 C38.86 58 19.72 58 0 58 C0 38.86 0 19.72 0 0 Z M15 11 C15 22.88 15 34.76 15 47 C17.97 47 20.94 47 24 47 C24 42.38 24 37.76 24 33 C25.98 33.33 27.96 33.66 30 34 C31.6796875 36.94140625 31.6796875 36.94140625 32.875 40.5625 C33.28492188 41.76003906 33.69484375 42.95757812 34.1171875 44.19140625 C34.55417969 45.58166016 34.55417969 45.58166016 35 47 C37.97 47 40.94 47 44 47 C43.37469224 43.40931522 42.41818571 40.19404058 41.0625 36.8125 C40.72347656 35.95269531 40.38445312 35.09289062 40.03515625 34.20703125 C39.08711262 31.86049736 39.08711262 31.86049736 37 30 C37.804375 29.278125 38.60875 28.55625 39.4375 27.8125 C42.07795174 24.91444322 43 23.86055809 43 20 C41.75294621 16.33219472 40.73844956 14.4919157 37.49609375 12.33203125 C32.91026295 10.5848041 28.97567527 10.67115748 24.125 10.8125 C21.11375 10.874375 18.1025 10.93625 15 11 Z " fill="#D6D22D" transform="translate(130,66)"/>
<path d="M0 0 C19.14 0 38.28 0 58 0 C58 18.81 58 37.62 58 57 C38.86 57 19.72 57 0 57 C0 38.19 0 19.38 0 0 Z M23 11 C21.1422027 15.78474023 19.29097177 20.57194866 17.44580078 25.36157227 C16.81707057 26.99085016 16.18654631 28.61943691 15.55419922 30.24731445 C14.64599495 32.58626123 13.74425514 34.92761131 12.84375 37.26953125 C12.55939087 37.99775589 12.27503174 38.72598053 11.98205566 39.47627258 C10.84036116 42.46124885 10 44.77510604 10 48 C12.64 48 15.28 48 18 48 C18.99 45.03 19.98 42.06 21 39 C25.95 39.33 30.9 39.66 36 40 C36.99 42.64 37.98 45.28 39 48 C41.97 48 44.94 48 48 48 C45.48161982 40.26140131 42.70100712 32.63103365 39.875 25 C39.19244141 23.14181641 39.19244141 23.14181641 38.49609375 21.24609375 C38.06167969 20.07175781 37.62726563 18.89742187 37.1796875 17.6875 C36.58776611 16.08455078 36.58776611 16.08455078 35.98388672 14.44921875 C35.22320158 12.09234786 35.22320158 12.09234786 34 11 C32.14712498 10.92773498 30.29166122 10.9161878 28.4375 10.9375 C27.42558594 10.94652344 26.41367188 10.95554688 25.37109375 10.96484375 C24.58863281 10.97644531 23.80617188 10.98804688 23 11 Z " fill="#419ACC" transform="translate(65,131)"/>
<path d="M0 0 C19.14 0 38.28 0 58 0 C58 19.14 58 38.28 58 58 C38.86 58 19.72 58 0 58 C0 38.86 0 19.72 0 0 Z M13 11 C13 22.88 13 34.76 13 47 C15.64 47 18.28 47 21 47 C21.33 39.41 21.66 31.82 22 24 C23.06541016 26.36478516 23.06541016 26.36478516 24.15234375 28.77734375 C25.08061069 30.83078273 26.00900254 32.88416524 26.9375 34.9375 C27.40607422 35.97841797 27.87464844 37.01933594 28.35742188 38.09179688 C28.80537109 39.08115234 29.25332031 40.07050781 29.71484375 41.08984375 C30.12855225 42.00628662 30.54226074 42.92272949 30.96850586 43.86694336 C31.82337906 45.93296129 31.82337906 45.93296129 33 47 C36.96 47 40.92 47 45 47 C45 35.12 45 23.24 45 11 C42.36 11 39.72 11 37 11 C36.67 18.92 36.34 26.84 36 35 C35.28972656 33.35128906 34.57945312 31.70257813 33.84765625 30.00390625 C32.91939539 27.85671698 31.9910032 25.70958448 31.0625 23.5625 C30.59392578 22.47388672 30.12535156 21.38527344 29.64257812 20.26367188 C29.19462891 19.22919922 28.74667969 18.19472656 28.28515625 17.12890625 C27.87144775 16.17056885 27.45773926 15.21223145 27.03149414 14.22485352 C26.18987025 12.07517248 26.18987025 12.07517248 25 11 C21.04 11 17.08 11 13 11 Z " fill="#F89A3C" transform="translate(130,1)"/>
<path d="M0 0 C19.14 0 38.28 0 58 0 C58 18.81 58 37.62 58 57 C38.86 57 19.72 57 0 57 C0 38.19 0 19.38 0 0 Z M13 11 C13 23.21 13 35.42 13 48 C27.54171234 48.51899226 27.54171234 48.51899226 39.9375 42.75 C44.12573358 37.16568856 45.97849395 31.89022822 45 25 C43.25741017 19.28817777 40.91302209 16.37168183 36 13 C28.36615654 10.10402133 28.36615654 10.10402133 13 11 Z " fill="#6CBADD" transform="translate(130,131)"/>
<path d="M0 0 C9 1 9 1 11.5 2.875 C14.37212726 6.94384695 14.51988701 11.17508376 14 16 C12.43564712 20.0226217 11.61276337 21.59149109 8 24 C5.36 24 2.72 24 0 24 C0 16.08 0 8.16 0 0 Z " fill="#6CBADD" transform="translate(152,148)"/>
<path d="M0 0 C6.39075249 -0.36174071 6.39075249 -0.36174071 9 1.1875 C10 3 10 3 10 5.5625 C9 8 9 8 6.6875 9.3125 C4 10 4 10 0 10 C0 6.7 0 3.4 0 0 Z " fill="#D6D22D" transform="translate(154,83)"/>
<path d="M0 0 C2 1 2 1 3.0703125 3.72265625 C3.59238281 5.37587891 3.59238281 5.37587891 4.125 7.0625 C4.47820312 8.16722656 4.83140625 9.27195313 5.1953125 10.41015625 C5.46085937 11.26480469 5.72640625 12.11945313 6 13 C2.37 13 -1.26 13 -5 13 C-3.35 8.71 -1.7 4.42 0 0 Z " fill="#419ACC" transform="translate(93,150)"/>
</svg>
