<svg fill="#e6e6e6" height="800" width="800" xmlns="http://www.w3.org/2000/svg" viewBox="0 0 496.804 496.804" xml:space="preserve" stroke="#e6e6e6"><path d="M467.585 433.167a33.161 33.161 0 0 0-30.888-21.089H51.416a33.166 33.166 0 0 0-30.891 21.089L3.069 477.834a13.891 13.891 0 0 0 1.472 12.905 13.905 13.905 0 0 0 11.482 6.065h456.066c4.593 0 8.895-2.272 11.482-6.065a13.9 13.9 0 0 0 1.472-12.905l-17.458-44.667zM64.353 377.85H423.75c18.315 0 33.162-14.846 33.162-33.159V190.167h-33.137l-.025 154.563-359.439-.04.042-231.253h160.911v-33.12H64.353c-18.315 0-33.162 14.846-33.162 33.161V344.69c0 18.314 14.846 33.16 33.162 33.16z"/><path d="M465.862 0h-178.65c-15.923 0-28.828 12.904-28.828 28.826v99.393c0 15.922 12.905 28.826 28.828 28.826h41.974l-17.838 48.008a3.212 3.212 0 0 0 .938 3.573c.598.51 1.342.775 2.094.775.542 0 1.091-.137 1.586-.42l91.808-51.937h58.088c15.923 0 28.828-12.904 28.828-28.826V28.826C494.69 12.904 481.784 0 465.862 0z"/></svg>