<?xml version="1.0" encoding="UTF-8"?>
<!DOCTYPE svg PUBLIC "-//W3C//DTD SVG 1.1//EN" "http://www.w3.org/Graphics/SVG/1.1/DTD/svg11.dtd">
<svg xmlns="http://www.w3.org/2000/svg" version="1.1" width="412px" height="424px" style="shape-rendering:geometricPrecision; text-rendering:geometricPrecision; image-rendering:optimizeQuality; fill-rule:evenodd; clip-rule:evenodd" xmlns:xlink="http://www.w3.org/1999/xlink">
<g><path style="opacity:1" fill="#50437b" d="M 327.5,-0.5 C 335.167,-0.5 342.833,-0.5 350.5,-0.5C 377.77,4.71684 396.937,20.0502 408,45.5C 409.494,50.2242 410.661,54.8909 411.5,59.5C 411.5,64.5 411.5,69.5 411.5,74.5C 407.515,95.9726 398.515,115.139 384.5,132C 416.787,193.821 417.62,255.987 387,318.5C 352.227,379.311 300.06,414.311 230.5,423.5C 220.833,423.5 211.167,423.5 201.5,423.5C 134.261,415.809 82.0942,383.809 45,327.5C 18.8046,279.752 12.4713,229.419 26,176.5C 28.0028,168.991 30.5028,161.658 33.5,154.5C 14.1103,139.802 2.77696,120.468 -0.5,96.5C -0.5,92.8333 -0.5,89.1667 -0.5,85.5C 5.436,49.7268 26.1027,27.5602 61.5,19C 82.5206,16.1715 101.521,21.0049 118.5,33.5C 124.516,38.5163 129.849,44.1829 134.5,50.5C 138.526,48.8182 142.526,47.1515 146.5,45.5C 185.546,31.8764 225.212,29.8764 265.5,39.5C 281.224,18.4312 301.891,5.09789 327.5,-0.5 Z"/></g>
<g><path style="opacity:1" fill="#fefefe" d="M 395.5,274.5 C 309.111,354.085 207.444,385.085 90.5,367.5C 55.4369,338.06 34.9369,300.393 29,254.5C 24.5893,218.991 29.4226,184.824 43.5,152C 36.0954,145.6 28.9287,138.766 22,131.5C -0.295482,96.0685 4.53785,64.9019 36.5,38C 69.4876,19.3795 98.9876,23.8795 125,51.5C 129.09,56.6729 132.423,62.3395 135,68.5C 140.188,69.9798 142.188,67.9798 141,62.5C 140.293,60.9194 139.46,59.4194 138.5,58C 177.099,40.9558 217.099,36.9558 258.5,46C 259.624,46.2492 260.624,46.7492 261.5,47.5C 259.397,50.6647 258.23,53.998 258,57.5C 259.466,59.3249 261.299,59.8249 263.5,59C 269.986,48.1696 277.653,38.1696 286.5,29C 315.582,3.44109 346.582,0.774423 379.5,21C 402.918,40.166 409.085,63.9994 398,92.5C 395.194,99.4455 391.861,106.112 388,112.5C 382.996,118.522 378.496,124.855 374.5,131.5C 400.398,176.343 407.398,224.01 395.5,274.5 Z"/></g>
<g><path style="opacity:1" fill="#abdbbb" d="M 118.5,33.5 C 128.837,35.3395 138.17,39.3395 146.5,45.5C 142.526,47.1515 138.526,48.8182 134.5,50.5C 129.849,44.1829 124.516,38.5163 118.5,33.5 Z"/></g>
<g><path style="opacity:1" fill="#feafed" d="M 333.5,50.5 C 352.493,49.6586 360.993,58.6586 359,77.5C 355.962,86.0339 351.129,93.3673 344.5,99.5C 333.547,88.3793 321.547,78.5459 308.5,70C 314.723,60.5895 323.056,54.0895 333.5,50.5 Z"/></g>
<g><path style="opacity:1" fill="#feaeed" d="M 63.5,67.5 C 76.952,66.4728 87.952,70.9728 96.5,81C 84.3677,94.9668 71.701,108.467 58.5,121.5C 44.7885,109.654 41.2885,95.3209 48,78.5C 52.1272,73.202 57.2939,69.5354 63.5,67.5 Z"/></g>
<g><path style="opacity:1" fill="#4d3f79" d="M 307.5,163.5 C 310.688,165.69 313.855,168.024 317,170.5C 318.477,174.998 316.977,177.165 312.5,177C 308.343,174.336 304.343,171.503 300.5,168.5C 289.99,160.831 279.323,153.331 268.5,146C 267.018,143.408 267.352,141.075 269.5,139C 289.164,131.572 309.497,127.572 330.5,127C 333.167,129.333 333.167,131.667 330.5,134C 316.602,135.033 302.936,137.366 289.5,141C 297.376,142.888 305.376,144.221 313.5,145C 316.75,149.48 315.583,151.98 310,152.5C 302.828,151.284 295.661,150.45 288.5,150C 294.863,154.51 301.196,159.01 307.5,163.5 Z"/></g>
<g><path style="opacity:1" fill="#4e3f79" d="M 207.5,137.5 C 218.599,137.105 229.599,137.938 240.5,140C 241.333,140.833 242.167,141.667 243,142.5C 243.398,169.1 230.232,181.934 203.5,181C 186.475,176.658 177.642,165.825 177,148.5C 182.111,145.236 187.611,142.736 193.5,141C 198.341,140.005 203.008,138.838 207.5,137.5 Z"/></g>
<g><path style="opacity:1" fill="#4d3f79" d="M 129.5,177.5 C 124.38,180.78 119.38,184.28 114.5,188C 108.438,190.942 106.272,189.109 108,182.5C 112.835,179.511 117.335,176.178 121.5,172.5C 126.663,168.856 131.996,165.356 137.5,162C 129.644,162.264 121.811,163.097 114,164.5C 109.849,164.549 108.516,162.549 110,158.5C 110.5,158 111,157.5 111.5,157C 119.018,156.215 126.351,154.882 133.5,153C 120.314,149.852 106.981,147.518 93.5,146C 92.0183,143.408 92.3517,141.075 94.5,139C 116.482,139.297 137.316,144.13 157,153.5C 157.667,154.833 157.667,156.167 157,157.5C 147.651,164.03 138.485,170.697 129.5,177.5 Z"/></g>
<g><path style="opacity:1" fill="#fb8eb9" d="M 217.5,149.5 C 223.238,149.623 228.904,150.29 234.5,151.5C 233.381,163.127 227.047,170.294 215.5,173C 204.632,174.65 195.799,171.15 189,162.5C 188.333,161.833 188.333,161.167 189,160.5C 197.746,154.535 207.246,150.868 217.5,149.5 Z"/></g>
<g><path style="opacity:1" fill="#feaeec" d="M 300.5,168.5 C 304.343,171.503 308.343,174.336 312.5,177C 316.977,177.165 318.477,174.998 317,170.5C 313.855,168.024 310.688,165.69 307.5,163.5C 324.189,153.388 341.189,152.888 358.5,162C 380.822,180.123 384.655,201.623 370,226.5C 353.465,244.787 333.965,248.621 311.5,238C 293.849,226.175 287.016,209.675 291,188.5C 293.414,181.344 296.581,174.677 300.5,168.5 Z"/></g>
<g><path style="opacity:1" fill="#fdaeec" d="M 121.5,172.5 C 117.335,176.178 112.835,179.511 108,182.5C 106.272,189.109 108.438,190.942 114.5,188C 119.38,184.28 124.38,180.78 129.5,177.5C 142.505,189.238 147.338,203.905 144,221.5C 135.418,247.217 117.584,258.384 90.5,255C 66.3533,246.847 54.8533,230.013 56,204.5C 63.4306,176.415 81.5973,164.248 110.5,168C 114.397,169.019 118.064,170.519 121.5,172.5 Z"/></g>
<g><path style="opacity:1" fill="#e5e2eb" d="M 395.5,274.5 C 373.29,345.543 326.29,391.043 254.5,411C 192.674,422.657 138.008,408.157 90.5,367.5C 207.444,385.085 309.111,354.085 395.5,274.5 Z"/></g>
</svg>
