<?xml version="1.0" encoding="UTF-8"?>
<svg version="1.1" xmlns="http://www.w3.org/2000/svg" width="512" height="512">
<path d="M0 0 C1.03039398 -0.00571014 2.06078796 -0.01142029 3.12240601 -0.01730347 C4.25233475 -0.01842133 5.38226349 -0.01953918 6.5464325 -0.02069092 C7.736922 -0.02565582 8.9274115 -0.03062073 10.15397644 -0.03573608 C13.4206322 -0.04784488 16.68725217 -0.05530299 19.95392632 -0.05974674 C21.99576801 -0.06267942 24.03760411 -0.06678461 26.07944298 -0.07125092 C32.47065845 -0.08492341 38.86186112 -0.0945911 45.2530902 -0.09845281 C52.62561691 -0.10293215 59.99795808 -0.12047516 67.37042838 -0.1494534 C73.07245013 -0.17108611 78.77441975 -0.18115794 84.47648209 -0.18249393 C87.8804848 -0.18354089 91.28431305 -0.18942516 94.68827248 -0.20731354 C98.48748995 -0.22435125 102.28625491 -0.22249899 106.085495 -0.21600342 C107.20935104 -0.2252182 108.33320709 -0.23443298 109.49111938 -0.243927 C116.04708242 -0.20878137 120.84758159 0.22327515 125.87333679 4.85919189 C126.35157898 5.44700439 126.82982117 6.03481689 127.32255554 6.64044189 C127.81368835 7.22825439 128.30482117 7.81606689 128.81083679 8.42169189 C131.72699662 12.60120434 131.14373791 17.24243694 131.12358093 22.10992432 C131.12372696 23.02719803 131.12387299 23.94447174 131.12402344 24.88954163 C131.12332611 27.92502192 131.1155421 30.96044105 131.10771179 33.99591064 C131.10584697 36.09912584 131.10442337 38.20234147 131.10342407 40.30555725 C131.09960393 45.84413856 131.08977791 51.38269369 131.07872009 56.92126465 C131.06849518 62.57179409 131.06392413 68.22232775 131.05888367 73.87286377 C131.04815522 84.96206799 131.0310848 96.05125276 131.01005554 107.14044189 C131.5604953 107.13378006 132.11093506 107.12711823 132.67805481 107.12025452 C138.4208236 107.05374668 144.16348249 107.00857735 149.90653992 106.97564697 C152.04818671 106.96058548 154.18980278 106.94013218 156.3313446 106.91412354 C159.41442966 106.87762462 162.49710592 106.86068887 165.58036804 106.84747314 C167.01039658 106.82424736 167.01039658 106.82424736 168.46931458 106.80055237 C174.48385152 106.7990389 179.05743966 107.38419951 183.65458679 111.67559814 C186.88899884 115.9052139 188.13417615 117.91732029 188.14427662 123.1955452 C188.14873446 124.27219633 188.15319231 125.34884747 188.15778524 126.4581244 C188.15750869 128.24670133 188.15750869 128.24670133 188.15722656 130.07141113 C188.16090325 131.33070427 188.16457994 132.5899974 188.16836804 133.88745093 C188.17840418 137.39443644 188.18210742 140.90140484 188.18475735 144.40840268 C188.18865564 148.18630278 188.19823431 151.96418926 188.20697021 155.74208069 C188.22674824 164.87149607 188.23680259 174.00091258 188.245698 183.13034403 C188.25007877 187.42716521 188.25544613 191.72398516 188.26068687 196.02080536 C188.27770059 210.30040862 188.29219538 224.58001111 188.29943562 238.85962296 C188.30134558 242.56667329 188.3032659 246.27372362 188.30522156 249.98077393 C188.3057053 250.90216902 188.30618904 251.82356412 188.30668744 252.77288029 C188.31499001 267.70318094 188.34033012 282.63340153 188.37280224 297.56366721 C188.40585268 312.88446924 188.42388256 328.20523057 188.42707986 343.52606845 C188.42924684 352.13131342 188.43802293 360.73644164 188.46354103 369.34165192 C188.48522055 376.66944867 188.49331206 383.99710033 188.48357425 391.32492551 C188.47902149 395.06443822 188.48097192 398.80365139 188.50033569 402.54312325 C188.521142 406.59614022 188.51100807 410.64848946 188.49780273 414.70153809 C188.5142566 416.47673069 188.5142566 416.47673069 188.53104287 418.28778577 C188.48159487 424.55217374 188.26362974 428.40396788 184.01005554 433.14044189 C178.55245876 438.18871892 174.2614096 438.28852288 167.05015564 438.26069641 C166.24227813 438.26155084 165.43440061 438.26240526 164.60204196 438.26328558 C161.89199536 438.26493415 159.18201051 438.25942917 156.4719696 438.25396729 C154.53051759 438.25368525 152.58906547 438.25384346 150.64761353 438.25440979 C145.3732159 438.25469714 140.09884094 438.24881045 134.82444859 438.24183583 C129.31378862 438.23559195 123.80312816 438.23499767 118.29246521 438.23381042 C107.85550784 438.23070017 97.41856092 438.22249088 86.98160815 438.21246094 C75.10024346 438.20129033 63.21887827 438.19578695 51.33750963 438.1907655 C26.8950178 438.18030803 2.4525403 438.16196633 -21.98994446 438.14044189 C-21.98994446 452.33044189 -21.98994446 466.52044189 -21.98994446 481.14044189 C-15.4299054 481.09403564 -8.86986633 481.04762939 -2.11103821 480.99981689 C2.04978495 480.97937396 6.21054602 480.96011785 10.37138367 480.94512939 C16.97283316 480.92123636 23.57406031 480.89299848 30.17533875 480.83868408 C35.49864066 480.79515978 40.82170406 480.77129063 46.14517021 480.76093292 C48.17412507 480.75355342 50.20306717 480.73914291 52.23192024 480.71752167 C55.0782535 480.68840043 57.92360657 480.68448957 60.77006531 480.68634033 C61.60516632 480.67195923 62.44026733 480.65757812 63.30067444 480.64276123 C69.00718161 480.6827984 72.30206626 481.88212785 77.01005554 485.14044189 C79.83051853 488.56882422 80.88865295 492.29062377 81.51005554 496.64044189 C80.69989566 502.31156109 78.97221862 506.42668062 74.62094116 510.22710419 C70.04203114 513.17745935 65.05130494 512.6927871 59.77494812 512.64837646 C58.63882741 512.65461643 57.5027067 512.66085639 56.33215809 512.66728544 C52.52275696 512.68324835 48.71399275 512.67059754 44.90458679 512.65802002 C42.17454202 512.6612391 39.44452436 512.67041663 36.7144928 512.67926025 C30.06771617 512.69704236 23.42112027 512.69320694 16.77433658 512.68160969 C11.37215108 512.6725744 5.97001621 512.67135177 0.56782532 512.67570496 C-0.20117983 512.67631789 -0.97018498 512.67693082 -1.76249331 512.67756233 C-3.32473574 512.67884123 -4.88697814 512.68013809 -6.44922054 512.68145269 C-21.09675944 512.69285758 -35.74419818 512.67974624 -50.39172065 512.65825123 C-62.95869176 512.64038031 -75.52551508 512.64348444 -88.09248352 512.66192627 C-102.68777176 512.68333461 -117.28297222 512.69175895 -131.87827396 512.67947721 C-133.43475404 512.67820302 -134.99123413 512.67694554 -136.54771423 512.67570496 C-137.31352269 512.67508785 -138.07933114 512.67447075 -138.86834592 512.67383495 C-144.26374843 512.67038194 -149.65909525 512.67620934 -155.05448914 512.68562317 C-161.63013615 512.69684415 -168.20559219 512.69380116 -174.78121734 512.67250019 C-178.13602487 512.66199069 -181.49025047 512.66002011 -184.84509659 512.6710968 C-188.48199606 512.68199908 -192.1179952 512.66835124 -195.75483704 512.64837646 C-196.8149509 512.65729935 -197.87506475 512.66622224 -198.96730328 512.67541552 C-204.95604072 512.61145224 -208.42374719 512.1285773 -212.98994446 508.14044189 C-215.69462149 504.63303986 -216.86779644 500.99547803 -217.48994446 496.64044189 C-216.86854187 492.29062377 -215.81040745 488.56882422 -212.98994446 485.14044189 C-207.42004805 481.28561755 -203.43721025 480.57118047 -196.74995422 480.68634033 C-195.85160355 480.68575623 -194.95325287 480.68517212 -194.02767944 480.68457031 C-191.07850075 480.68734186 -188.13035134 480.71838975 -185.18135071 480.74981689 C-183.12869824 480.75728259 -181.07603862 480.76297397 -179.02337646 480.76696777 C-173.63591129 480.78219816 -168.2488814 480.82145779 -162.86158752 480.86578369 C-156.38963567 480.91400968 -149.91753779 480.93228275 -143.44545746 480.95559692 C-133.62665092 480.99431014 -123.8087984 481.07098252 -113.98994446 481.14044189 C-113.98994446 466.95044189 -113.98994446 452.76044189 -113.98994446 438.14044189 C-119.92100159 438.15615234 -125.85205872 438.17186279 -131.96284485 438.18804932 C-151.53657713 438.23770948 -171.11031185 438.27102935 -190.68409061 438.29587841 C-202.55422234 438.31134812 -214.42429439 438.3324397 -226.29438782 438.36676025 C-236.64020323 438.39665933 -246.98597541 438.41601614 -257.33183283 438.42270738 C-262.81002206 438.42661875 -268.28808765 438.43581334 -273.76623726 438.45763206 C-278.92323964 438.47800515 -284.08006752 438.48427398 -289.23710632 438.47976494 C-291.12893052 438.48058977 -293.0207606 438.48655047 -294.91254997 438.49805832 C-297.49834051 438.5130153 -300.08347483 438.50938387 -302.66928101 438.50120544 C-303.41540793 438.50994397 -304.16153485 438.51868249 -304.93027169 438.52768582 C-310.56053456 438.47965383 -315.41690798 437.40771395 -319.73213196 433.60528564 C-322.87414453 429.36898594 -324.11415235 427.31794851 -324.12416553 422.08533859 C-324.12862338 421.00868746 -324.13308122 419.93203632 -324.13767415 418.82275939 C-324.13748979 417.63037477 -324.13730543 416.43799015 -324.13711548 415.20947266 C-324.14079217 413.95017952 -324.14446885 412.69088639 -324.14825696 411.39343286 C-324.15829309 407.88644734 -324.16199634 404.37947895 -324.16464627 400.87248111 C-324.16854456 397.09458101 -324.17812322 393.31669453 -324.18685913 389.5388031 C-324.20663715 380.40938772 -324.2166915 371.27997121 -324.22558692 362.15053976 C-324.22996769 357.85371857 -324.23533505 353.55689863 -324.24057579 349.26007843 C-324.25758951 334.98047517 -324.2720843 320.70087268 -324.27932453 306.42126083 C-324.2812345 302.7142105 -324.28315482 299.00716017 -324.28511047 295.30010986 C-324.28559421 294.37871476 -324.28607795 293.45731967 -324.28657635 292.5080035 C-324.29487893 277.57770285 -324.32021903 262.64748226 -324.35269115 247.71721658 C-324.38574159 232.39641454 -324.40377147 217.07565322 -324.40696877 201.75481534 C-324.40913576 193.14957037 -324.41791184 184.54444215 -324.44342995 175.93923187 C-324.46510947 168.61143512 -324.47320097 161.28378346 -324.46346316 153.95595828 C-324.45891041 150.21644557 -324.46086083 146.4772324 -324.48022461 142.73776054 C-324.50103092 138.68474357 -324.49089699 134.63239433 -324.47769165 130.5793457 C-324.4886609 129.39588397 -324.49963014 128.21242223 -324.51093179 126.99309802 C-324.46149915 120.73065594 -324.24743604 116.87258237 -319.98994446 112.14044189 C-315.98767414 108.52863697 -313.08176994 107.01114035 -307.70210266 107.0269165 C-306.84143692 107.02699203 -305.98077118 107.02706757 -305.09402466 107.02714539 C-304.168936 107.03230667 -303.24384735 107.03746796 -302.29072571 107.04278564 C-301.34054062 107.04420059 -300.39035553 107.04561554 -299.41137695 107.04707336 C-296.37503417 107.05267314 -293.33876498 107.06522558 -290.30244446 107.07794189 C-288.24450281 107.08295692 -286.18656002 107.08751983 -284.12861633 107.09161377 C-279.08236399 107.1026425 -274.03616671 107.11990696 -268.98994446 107.14044189 C-269.00659904 105.68251221 -269.00659904 105.68251221 -269.02359009 104.19512939 C-269.12515044 95.01485195 -269.19999799 85.83468917 -269.24900532 76.65397644 C-269.27504813 71.9345449 -269.31034837 67.21556854 -269.36714172 62.49639893 C-269.42165209 57.93816686 -269.45140496 53.38037135 -269.46433067 48.82183838 C-269.47353654 47.08674248 -269.49151366 45.35166923 -269.51859474 43.61676025 C-269.76436866 27.21237005 -269.76436866 27.21237005 -265.3717041 21.49346924 C-260.18987773 16.41939372 -255.6618744 15.01910459 -248.60879517 14.99327087 C-247.63336448 14.98775584 -247.63336448 14.98775584 -246.63822812 14.9821294 C-244.45508457 14.9710998 -242.27198864 14.96724994 -240.08882141 14.96343994 C-238.52502288 14.95717468 -236.96122583 14.95052782 -235.39743042 14.94352722 C-230.25770605 14.9224897 -225.11798141 14.91212428 -219.97822571 14.90216064 C-218.20805025 14.8981128 -216.43787495 14.89399587 -214.66769981 14.88981056 C-206.35004186 14.87075859 -198.03239278 14.85652827 -189.71471721 14.84819859 C-180.11842714 14.83842949 -170.52236794 14.8121186 -160.9261592 14.7716977 C-153.50607557 14.74151746 -146.08605805 14.72672786 -138.66591424 14.72341758 C-134.2356509 14.72106902 -129.80563419 14.71213408 -125.37543678 14.68695641 C-121.2048901 14.66363758 -117.03475176 14.65945763 -112.86415672 14.66971779 C-111.33718379 14.67021236 -109.81019049 14.66391519 -108.28327942 14.65016174 C-100.30164957 14.58231699 -93.83109823 14.60434796 -86.98994446 19.14044189 C-85.15010071 20.95684814 -85.15010071 20.95684814 -84.05244446 22.70294189 C-83.4820343 23.57112549 -83.4820343 23.57112549 -82.90010071 24.45684814 C-80.73467972 28.46241229 -80.85432594 32.2255188 -80.87641907 36.64117432 C-80.87627304 37.4023909 -80.87612701 38.16360748 -80.87597656 38.94789124 C-80.87667322 41.46392669 -80.88445408 43.97988812 -80.89228821 46.49591064 C-80.89415326 48.24040181 -80.89557675 49.9848935 -80.89657593 51.72938538 C-80.9003942 56.32102911 -80.91021862 60.91264122 -80.92127991 65.50427246 C-80.93330727 71.0133982 -80.93789956 76.52253451 -80.94373322 82.03166962 C-80.95343072 90.40128237 -80.97259211 98.77082573 -80.98994446 107.14044189 C-60.19994446 107.14044189 -39.40994446 107.14044189 -17.98994446 107.14044189 C-18.03635071 100.51981689 -18.08275696 93.89919189 -18.13056946 87.07794189 C-18.15101488 82.87610323 -18.17027117 78.67432617 -18.18525696 74.47247314 C-18.20914039 67.80746678 -18.2373524 61.14268087 -18.29170227 54.47784424 C-18.33525952 49.10266712 -18.35910265 43.7277265 -18.36945343 38.35238647 C-18.37682703 36.30472085 -18.39122598 34.25706773 -18.41286469 32.20950317 C-18.44202974 29.3346388 -18.44589496 26.46074362 -18.44404602 23.58575439 C-18.45842712 22.74489792 -18.47280823 21.90404144 -18.48762512 21.03770447 C-18.44366939 14.69443396 -16.96517019 9.27934679 -12.50709915 4.57601929 C-8.41441216 1.01854815 -5.30076012 0.01758864 0 0 Z " fill="#B4FBFE" transform="translate(323.9899444580078,-0.14044189453125)"/>
<path d="M0 0 C1.03039398 -0.00571014 2.06078796 -0.01142029 3.12240601 -0.01730347 C4.25233475 -0.01842133 5.38226349 -0.01953918 6.5464325 -0.02069092 C7.736922 -0.02565582 8.9274115 -0.03062073 10.15397644 -0.03573608 C13.4206322 -0.04784488 16.68725217 -0.05530299 19.95392632 -0.05974674 C21.99576801 -0.06267942 24.03760411 -0.06678461 26.07944298 -0.07125092 C32.47065845 -0.08492341 38.86186112 -0.0945911 45.2530902 -0.09845281 C52.62561691 -0.10293215 59.99795808 -0.12047516 67.37042838 -0.1494534 C73.07245013 -0.17108611 78.77441975 -0.18115794 84.47648209 -0.18249393 C87.8804848 -0.18354089 91.28431305 -0.18942516 94.68827248 -0.20731354 C98.48748995 -0.22435125 102.28625491 -0.22249899 106.085495 -0.21600342 C107.20935104 -0.2252182 108.33320709 -0.23443298 109.49111938 -0.243927 C116.04708242 -0.20878137 120.84758159 0.22327515 125.87333679 4.85919189 C126.35157898 5.44700439 126.82982117 6.03481689 127.32255554 6.64044189 C127.81368835 7.22825439 128.30482117 7.81606689 128.81083679 8.42169189 C131.72699662 12.60120434 131.14373791 17.24243694 131.12358093 22.10992432 C131.12372696 23.02719803 131.12387299 23.94447174 131.12402344 24.88954163 C131.12332611 27.92502192 131.1155421 30.96044105 131.10771179 33.99591064 C131.10584697 36.09912584 131.10442337 38.20234147 131.10342407 40.30555725 C131.09960393 45.84413856 131.08977791 51.38269369 131.07872009 56.92126465 C131.06849518 62.57179409 131.06392413 68.22232775 131.05888367 73.87286377 C131.04815522 84.96206799 131.0310848 96.05125276 131.01005554 107.14044189 C131.5604953 107.13378006 132.11093506 107.12711823 132.67805481 107.12025452 C138.4208236 107.05374668 144.16348249 107.00857735 149.90653992 106.97564697 C152.04818671 106.96058548 154.18980278 106.94013218 156.3313446 106.91412354 C159.41442966 106.87762462 162.49710592 106.86068887 165.58036804 106.84747314 C167.01039658 106.82424736 167.01039658 106.82424736 168.46931458 106.80055237 C174.48385152 106.7990389 179.05743966 107.38419951 183.65458679 111.67559814 C186.88899884 115.9052139 188.13417615 117.91732029 188.14427662 123.1955452 C188.14873446 124.27219633 188.15319231 125.34884747 188.15778524 126.4581244 C188.15750869 128.24670133 188.15750869 128.24670133 188.15722656 130.07141113 C188.16090325 131.33070427 188.16457994 132.5899974 188.16836804 133.88745093 C188.17840418 137.39443644 188.18210742 140.90140484 188.18475735 144.40840268 C188.18865564 148.18630278 188.19823431 151.96418926 188.20697021 155.74208069 C188.22674824 164.87149607 188.23680259 174.00091258 188.245698 183.13034403 C188.25007877 187.42716521 188.25544613 191.72398516 188.26068687 196.02080536 C188.27770059 210.30040862 188.29219538 224.58001111 188.29943562 238.85962296 C188.30134558 242.56667329 188.3032659 246.27372362 188.30522156 249.98077393 C188.3057053 250.90216902 188.30618904 251.82356412 188.30668744 252.77288029 C188.31499001 267.70318094 188.34033012 282.63340153 188.37280224 297.56366721 C188.40585268 312.88446924 188.42388256 328.20523057 188.42707986 343.52606845 C188.42924684 352.13131342 188.43802293 360.73644164 188.46354103 369.34165192 C188.48522055 376.66944867 188.49331206 383.99710033 188.48357425 391.32492551 C188.47902149 395.06443822 188.48097192 398.80365139 188.50033569 402.54312325 C188.521142 406.59614022 188.51100807 410.64848946 188.49780273 414.70153809 C188.5142566 416.47673069 188.5142566 416.47673069 188.53104287 418.28778577 C188.48159487 424.55217374 188.26362974 428.40396788 184.01005554 433.14044189 C178.55245876 438.18871892 174.2614096 438.28852288 167.05015564 438.26069641 C166.24227813 438.26155084 165.43440061 438.26240526 164.60204196 438.26328558 C161.89199536 438.26493415 159.18201051 438.25942917 156.4719696 438.25396729 C154.53051759 438.25368525 152.58906547 438.25384346 150.64761353 438.25440979 C145.3732159 438.25469714 140.09884094 438.24881045 134.82444859 438.24183583 C129.31378862 438.23559195 123.80312816 438.23499767 118.29246521 438.23381042 C107.85550784 438.23070017 97.41856092 438.22249088 86.98160815 438.21246094 C75.10024346 438.20129033 63.21887827 438.19578695 51.33750963 438.1907655 C26.8950178 438.18030803 2.4525403 438.16196633 -21.98994446 438.14044189 C-21.98994446 452.33044189 -21.98994446 466.52044189 -21.98994446 481.14044189 C-15.4299054 481.09403564 -8.86986633 481.04762939 -2.11103821 480.99981689 C2.04978495 480.97937396 6.21054602 480.96011785 10.37138367 480.94512939 C16.97283316 480.92123636 23.57406031 480.89299848 30.17533875 480.83868408 C35.49864066 480.79515978 40.82170406 480.77129063 46.14517021 480.76093292 C48.17412507 480.75355342 50.20306717 480.73914291 52.23192024 480.71752167 C55.0782535 480.68840043 57.92360657 480.68448957 60.77006531 480.68634033 C61.60516632 480.67195923 62.44026733 480.65757812 63.30067444 480.64276123 C69.00718161 480.6827984 72.30206626 481.88212785 77.01005554 485.14044189 C79.83051853 488.56882422 80.88865295 492.29062377 81.51005554 496.64044189 C80.69989566 502.31156109 78.97221862 506.42668062 74.62094116 510.22710419 C70.04203114 513.17745935 65.05130494 512.6927871 59.77494812 512.64837646 C58.63882741 512.65461643 57.5027067 512.66085639 56.33215809 512.66728544 C52.52275696 512.68324835 48.71399275 512.67059754 44.90458679 512.65802002 C42.17454202 512.6612391 39.44452436 512.67041663 36.7144928 512.67926025 C30.06771617 512.69704236 23.42112027 512.69320694 16.77433658 512.68160969 C11.37215108 512.6725744 5.97001621 512.67135177 0.56782532 512.67570496 C-0.20117983 512.67631789 -0.97018498 512.67693082 -1.76249331 512.67756233 C-3.32473574 512.67884123 -4.88697814 512.68013809 -6.44922054 512.68145269 C-21.09675944 512.69285758 -35.74419818 512.67974624 -50.39172065 512.65825123 C-62.95869176 512.64038031 -75.52551508 512.64348444 -88.09248352 512.66192627 C-102.68777176 512.68333461 -117.28297222 512.69175895 -131.87827396 512.67947721 C-133.43475404 512.67820302 -134.99123413 512.67694554 -136.54771423 512.67570496 C-137.31352269 512.67508785 -138.07933114 512.67447075 -138.86834592 512.67383495 C-144.26374843 512.67038194 -149.65909525 512.67620934 -155.05448914 512.68562317 C-161.63013615 512.69684415 -168.20559219 512.69380116 -174.78121734 512.67250019 C-178.13602487 512.66199069 -181.49025047 512.66002011 -184.84509659 512.6710968 C-188.48199606 512.68199908 -192.1179952 512.66835124 -195.75483704 512.64837646 C-196.8149509 512.65729935 -197.87506475 512.66622224 -198.96730328 512.67541552 C-204.95604072 512.61145224 -208.42374719 512.1285773 -212.98994446 508.14044189 C-215.69462149 504.63303986 -216.86779644 500.99547803 -217.48994446 496.64044189 C-216.86854187 492.29062377 -215.81040745 488.56882422 -212.98994446 485.14044189 C-207.42004805 481.28561755 -203.43721025 480.57118047 -196.74995422 480.68634033 C-195.85160355 480.68575623 -194.95325287 480.68517212 -194.02767944 480.68457031 C-191.07850075 480.68734186 -188.13035134 480.71838975 -185.18135071 480.74981689 C-183.12869824 480.75728259 -181.07603862 480.76297397 -179.02337646 480.76696777 C-173.63591129 480.78219816 -168.2488814 480.82145779 -162.86158752 480.86578369 C-156.38963567 480.91400968 -149.91753779 480.93228275 -143.44545746 480.95559692 C-133.62665092 480.99431014 -123.8087984 481.07098252 -113.98994446 481.14044189 C-113.98994446 466.95044189 -113.98994446 452.76044189 -113.98994446 438.14044189 C-119.92100159 438.15615234 -125.85205872 438.17186279 -131.96284485 438.18804932 C-151.53657713 438.23770948 -171.11031185 438.27102935 -190.68409061 438.29587841 C-202.55422234 438.31134812 -214.42429439 438.3324397 -226.29438782 438.36676025 C-236.64020323 438.39665933 -246.98597541 438.41601614 -257.33183283 438.42270738 C-262.81002206 438.42661875 -268.28808765 438.43581334 -273.76623726 438.45763206 C-278.92323964 438.47800515 -284.08006752 438.48427398 -289.23710632 438.47976494 C-291.12893052 438.48058977 -293.0207606 438.48655047 -294.91254997 438.49805832 C-297.49834051 438.5130153 -300.08347483 438.50938387 -302.66928101 438.50120544 C-303.41540793 438.50994397 -304.16153485 438.51868249 -304.93027169 438.52768582 C-310.56053456 438.47965383 -315.41690798 437.40771395 -319.73213196 433.60528564 C-322.87414453 429.36898594 -324.11415235 427.31794851 -324.12416553 422.08533859 C-324.12862338 421.00868746 -324.13308122 419.93203632 -324.13767415 418.82275939 C-324.13748979 417.63037477 -324.13730543 416.43799015 -324.13711548 415.20947266 C-324.14079217 413.95017952 -324.14446885 412.69088639 -324.14825696 411.39343286 C-324.15829309 407.88644734 -324.16199634 404.37947895 -324.16464627 400.87248111 C-324.16854456 397.09458101 -324.17812322 393.31669453 -324.18685913 389.5388031 C-324.20663715 380.40938772 -324.2166915 371.27997121 -324.22558692 362.15053976 C-324.22996769 357.85371857 -324.23533505 353.55689863 -324.24057579 349.26007843 C-324.25758951 334.98047517 -324.2720843 320.70087268 -324.27932453 306.42126083 C-324.2812345 302.7142105 -324.28315482 299.00716017 -324.28511047 295.30010986 C-324.28559421 294.37871476 -324.28607795 293.45731967 -324.28657635 292.5080035 C-324.29487893 277.57770285 -324.32021903 262.64748226 -324.35269115 247.71721658 C-324.38574159 232.39641454 -324.40377147 217.07565322 -324.40696877 201.75481534 C-324.40913576 193.14957037 -324.41791184 184.54444215 -324.44342995 175.93923187 C-324.46510947 168.61143512 -324.47320097 161.28378346 -324.46346316 153.95595828 C-324.45891041 150.21644557 -324.46086083 146.4772324 -324.48022461 142.73776054 C-324.50103092 138.68474357 -324.49089699 134.63239433 -324.47769165 130.5793457 C-324.4886609 129.39588397 -324.49963014 128.21242223 -324.51093179 126.99309802 C-324.46149915 120.73065594 -324.24743604 116.87258237 -319.98994446 112.14044189 C-315.98767414 108.52863697 -313.08176994 107.01114035 -307.70210266 107.0269165 C-306.84143692 107.02699203 -305.98077118 107.02706757 -305.09402466 107.02714539 C-304.168936 107.03230667 -303.24384735 107.03746796 -302.29072571 107.04278564 C-301.34054062 107.04420059 -300.39035553 107.04561554 -299.41137695 107.04707336 C-296.37503417 107.05267314 -293.33876498 107.06522558 -290.30244446 107.07794189 C-288.24450281 107.08295692 -286.18656002 107.08751983 -284.12861633 107.09161377 C-279.08236399 107.1026425 -274.03616671 107.11990696 -268.98994446 107.14044189 C-269.00659904 105.68251221 -269.00659904 105.68251221 -269.02359009 104.19512939 C-269.12515044 95.01485195 -269.19999799 85.83468917 -269.24900532 76.65397644 C-269.27504813 71.9345449 -269.31034837 67.21556854 -269.36714172 62.49639893 C-269.42165209 57.93816686 -269.45140496 53.38037135 -269.46433067 48.82183838 C-269.47353654 47.08674248 -269.49151366 45.35166923 -269.51859474 43.61676025 C-269.76436866 27.21237005 -269.76436866 27.21237005 -265.3717041 21.49346924 C-260.18987773 16.41939372 -255.6618744 15.01910459 -248.60879517 14.99327087 C-247.63336448 14.98775584 -247.63336448 14.98775584 -246.63822812 14.9821294 C-244.45508457 14.9710998 -242.27198864 14.96724994 -240.08882141 14.96343994 C-238.52502288 14.95717468 -236.96122583 14.95052782 -235.39743042 14.94352722 C-230.25770605 14.9224897 -225.11798141 14.91212428 -219.97822571 14.90216064 C-218.20805025 14.8981128 -216.43787495 14.89399587 -214.66769981 14.88981056 C-206.35004186 14.87075859 -198.03239278 14.85652827 -189.71471721 14.84819859 C-180.11842714 14.83842949 -170.52236794 14.8121186 -160.9261592 14.7716977 C-153.50607557 14.74151746 -146.08605805 14.72672786 -138.66591424 14.72341758 C-134.2356509 14.72106902 -129.80563419 14.71213408 -125.37543678 14.68695641 C-121.2048901 14.66363758 -117.03475176 14.65945763 -112.86415672 14.66971779 C-111.33718379 14.67021236 -109.81019049 14.66391519 -108.28327942 14.65016174 C-100.30164957 14.58231699 -93.83109823 14.60434796 -86.98994446 19.14044189 C-85.15010071 20.95684814 -85.15010071 20.95684814 -84.05244446 22.70294189 C-83.4820343 23.57112549 -83.4820343 23.57112549 -82.90010071 24.45684814 C-80.73467972 28.46241229 -80.85432594 32.2255188 -80.87641907 36.64117432 C-80.87627304 37.4023909 -80.87612701 38.16360748 -80.87597656 38.94789124 C-80.87667322 41.46392669 -80.88445408 43.97988812 -80.89228821 46.49591064 C-80.89415326 48.24040181 -80.89557675 49.9848935 -80.89657593 51.72938538 C-80.9003942 56.32102911 -80.91021862 60.91264122 -80.92127991 65.50427246 C-80.93330727 71.0133982 -80.93789956 76.52253451 -80.94373322 82.03166962 C-80.95343072 90.40128237 -80.97259211 98.77082573 -80.98994446 107.14044189 C-60.19994446 107.14044189 -39.40994446 107.14044189 -17.98994446 107.14044189 C-18.03635071 100.51981689 -18.08275696 93.89919189 -18.13056946 87.07794189 C-18.15101488 82.87610323 -18.17027117 78.67432617 -18.18525696 74.47247314 C-18.20914039 67.80746678 -18.2373524 61.14268087 -18.29170227 54.47784424 C-18.33525952 49.10266712 -18.35910265 43.7277265 -18.36945343 38.35238647 C-18.37682703 36.30472085 -18.39122598 34.25706773 -18.41286469 32.20950317 C-18.44202974 29.3346388 -18.44589496 26.46074362 -18.44404602 23.58575439 C-18.45842712 22.74489792 -18.47280823 21.90404144 -18.48762512 21.03770447 C-18.44366939 14.69443396 -16.96517019 9.27934679 -12.50709915 4.57601929 C-8.41441216 1.01854815 -5.30076012 0.01758864 0 0 Z M124.01005554 144.14044189 C116.57553864 149.69722946 106.77372686 148.80932073 97.94755554 148.89044189 C96.3986947 148.91864721 94.84986433 148.9485809 93.30107117 148.98028564 C89.53745462 149.05360869 85.77419789 149.10351045 82.01005554 149.14044189 C81.61608582 150.06602905 81.61608582 150.06602905 81.2141571 151.01031494 C80.68773621 152.22521606 80.68773621 152.22521606 80.15068054 153.46466064 C79.63296082 154.6686853 79.63296082 154.6686853 79.1047821 155.89703369 C76.79142122 160.63777257 73.44839654 163.03320857 68.83818054 165.27716064 C68.120495 165.62867188 67.40280945 165.98018311 66.66337585 166.34234619 C66.11778015 166.60571777 65.57218445 166.86908936 65.01005554 167.14044189 C65.0041893 168.0608577 64.99832306 168.9812735 64.99227905 169.92958069 C64.93441517 178.59662791 64.86237494 187.26341569 64.77434063 195.93021107 C64.72958126 200.38609325 64.69033761 204.84188282 64.66362 209.2979126 C64.63764226 213.59691389 64.59727966 217.89555985 64.54686928 222.19434166 C64.53016299 223.83576735 64.51867218 225.47725455 64.51244164 227.11875343 C64.50284108 229.4151817 64.4748324 231.7106932 64.44242859 234.00689697 C64.43132553 235.31483719 64.42022247 236.6227774 64.40878296 237.97035217 C64.01005554 241.14044189 64.01005554 241.14044189 62.73182678 243.0630188 C59.54179622 245.05922627 55.68936456 244.54314408 52.03739929 244.50372314 C51.15854568 244.50422165 50.27969208 244.50472015 49.37420654 244.50523376 C47.51736692 244.50289407 45.66052407 244.49317169 43.80375671 244.47662354 C40.95491837 244.45300294 38.10701396 244.4560667 35.25810242 244.46270752 C33.45536244 244.45713174 31.65262642 244.45002248 29.84989929 244.44122314 C28.99468185 244.44213455 28.13946442 244.44304596 27.2583313 244.44398499 C21.24108694 244.3714733 21.24108694 244.3714733 19.01005554 242.14044189 C18.56635325 236.54979304 18.56635325 236.54979304 19.01005554 234.14044189 C26.37740091 226.77309653 39.59769422 230.51231194 50.01005554 230.14044189 C50.01005554 209.35044189 50.01005554 188.56044189 50.01005554 167.14044189 C46.05005554 165.16044189 46.05005554 165.16044189 42.01005554 163.14044189 C40.02177429 161.49981689 40.02177429 161.49981689 38.69755554 159.89044189 C38.02273132 159.10927002 38.02273132 159.10927002 37.33427429 158.31231689 C36.06101684 156.22402444 35.26696476 154.29416439 34.42729187 152.00469971 C34.02755913 150.92034637 34.02755913 150.92034637 33.61975098 149.81408691 C33.41855148 149.26178406 33.21735199 148.7094812 33.01005554 148.14044189 C31.89034363 148.13109619 30.77063171 148.12175049 29.61698914 148.11212158 C25.44569238 148.07212028 21.27512532 148.00633384 17.10429382 147.93292236 C15.30230615 147.90477136 13.50019635 147.88352768 11.69804382 147.8694458 C9.10089356 147.84793434 6.50520259 147.80124433 3.90849304 147.74981689 C3.10825714 147.74858826 2.30802124 147.74735962 1.48353577 147.74609375 C-3.80125638 147.60903733 -6.78137766 146.59608945 -10.98994446 143.14044189 C-11.57118073 142.44418701 -12.15241699 141.74793213 -12.75126648 141.03057861 C-15.76883238 138.48281955 -17.58713568 138.65645099 -21.50263977 138.68634033 C-22.46911942 138.68546417 -22.46911942 138.68546417 -23.4551239 138.68457031 C-25.57666123 138.68734856 -27.69677882 138.71842415 -29.81806946 138.74981689 C-31.29208102 138.75728031 -32.76610252 138.76297277 -34.24012756 138.76696777 C-38.11359713 138.7822165 -41.98646361 138.82149082 -45.85969543 138.86578369 C-49.81448712 138.90675338 -53.76937657 138.92498236 -57.72431946 138.94512939 C-65.47980228 138.98798661 -73.23478876 139.05622768 -80.98994446 139.14044189 C-81.11401672 139.96608643 -81.23808899 140.79173096 -81.36592102 141.64239502 C-81.620672 143.26564697 -81.620672 143.26564697 -81.88056946 144.92169189 C-82.04589172 145.99483643 -82.21121399 147.06798096 -82.38154602 148.17364502 C-83.47681561 153.51462258 -85.78040825 156.22711863 -90.05244446 159.45294189 C-113.75923538 173.07173668 -144.65216625 162.78073429 -171.98994446 163.14044189 C-171.98994446 216.27044189 -171.98994446 269.40044189 -171.98994446 324.14044189 C-163.57494446 324.63544189 -163.57494446 324.63544189 -154.98994446 325.14044189 C-153.33994446 326.13044189 -151.68994446 327.12044189 -149.98994446 328.14044189 C-149.50876718 331.50868287 -149.1810657 333.89324024 -151.08564758 336.82989502 C-155.25297851 339.69787353 -161.36051939 338.65697058 -166.2960968 338.64141846 C-168.4831407 338.64044492 -170.66668763 338.6820876 -172.85322571 338.72637939 C-174.24254131 338.73158582 -175.6318691 338.7342746 -177.02119446 338.73419189 C-178.28512024 338.74128174 -179.54904602 338.74837158 -180.85127258 338.75567627 C-183.98994446 338.14044189 -183.98994446 338.14044189 -185.66119099 336.04293537 C-187.27756572 332.51216971 -187.37435115 329.96622805 -187.38867188 326.08531189 C-187.39864212 325.03759785 -187.39864212 325.03759785 -187.40881377 323.96871787 C-187.42742493 321.63477801 -187.42483985 319.30135166 -187.4223175 316.96734619 C-187.43133584 315.29174578 -187.44166324 313.61615197 -187.45320129 311.94056702 C-187.48078907 307.3955361 -187.49005823 302.8506303 -187.49605536 298.30552649 C-187.50543439 293.55422488 -187.53163741 288.80301688 -187.55606079 284.05177307 C-187.59974243 275.05630245 -187.62827918 266.06084997 -187.65138417 257.06530553 C-187.67842691 246.82349265 -187.722339 236.58177388 -187.7676729 226.34002817 C-187.86054303 205.27355002 -187.93221294 184.20704371 -187.98994446 163.14044189 C-188.81156067 163.13901688 -189.63317688 163.13759186 -190.47969055 163.13612366 C-198.24764147 163.1182454 -206.01493313 163.07649017 -213.78259277 163.00835133 C-217.77545078 162.97415589 -221.76792922 162.94898307 -225.76094055 162.94488525 C-229.61924525 162.94058611 -233.47669479 162.91199178 -237.33473206 162.86701012 C-238.80176297 162.85408628 -240.26889648 162.84970924 -241.73597717 162.8542881 C-249.8281864 162.87365033 -256.72842722 162.87956856 -262.98994446 157.14044189 C-267.77878081 151.97353952 -268.11401532 145.86367066 -268.98994446 139.14044189 C-272.80242872 139.11156953 -276.61488516 139.09368698 -280.42744446 139.07794189 C-281.51605774 139.06956299 -282.60467102 139.06118408 -283.72627258 139.05255127 C-285.27798157 139.04771729 -285.27798157 139.04771729 -286.86103821 139.04278564 C-287.81937561 139.03754883 -288.77771301 139.03231201 -289.76509094 139.0269165 C-291.96279785 138.88991059 -291.96279785 138.88991059 -292.98994446 140.14044189 C-293.08917364 141.55018437 -293.11917014 142.96486691 -293.12137222 144.37809563 C-293.12521337 145.29785301 -293.12905451 146.21761039 -293.13301206 147.16523921 C-293.13214557 148.18749036 -293.13127909 149.20974151 -293.13038635 150.26296997 C-293.13335747 151.33976552 -293.1363286 152.41656107 -293.13938975 153.52598679 C-293.14811911 157.16424384 -293.14958856 160.80246815 -293.15107727 164.44073486 C-293.15570243 167.03696768 -293.16072667 169.63319982 -293.16612244 172.22943115 C-293.17972528 179.30372619 -293.18573352 186.37801558 -293.19013309 193.45232153 C-293.19289224 197.86640004 -293.19712899 202.28047635 -293.20163727 206.69455338 C-293.21383252 218.90673879 -293.2241313 231.11892244 -293.22751236 243.33111382 C-293.22773193 244.11327338 -293.22795149 244.89543294 -293.22817771 245.70129431 C-293.22839599 246.4853661 -293.22861427 247.26943789 -293.22883916 248.07726943 C-293.22928263 249.66619802 -293.22972919 251.2551266 -293.23017883 252.84405518 C-293.23040026 253.63222504 -293.23062169 254.42039491 -293.23084983 255.23244871 C-293.23479919 268.00824106 -293.25225625 280.78397641 -293.27553836 293.55974673 C-293.29922805 306.66454896 -293.31171312 319.76932258 -293.31288028 332.87414658 C-293.31379839 340.23682705 -293.31958471 347.59943328 -293.33769989 354.96209335 C-293.35467156 361.88458219 -293.35637136 368.80692765 -293.34756088 375.72943115 C-293.34678664 378.27601625 -293.35118374 380.82260873 -293.36101913 383.36917496 C-293.37362148 386.83427015 -293.36792576 390.29885584 -293.35743713 393.76394653 C-293.36549354 394.78173624 -293.37354994 395.79952595 -293.38185048 396.84815776 C-293.37526064 397.77313064 -293.36867079 398.69810352 -293.36188126 399.65110588 C-293.36247834 400.45139398 -293.36307543 401.25168209 -293.36369061 402.07622135 C-293.11040529 404.17878779 -293.11040529 404.17878779 -291.92262816 405.89760476 C-288.99210493 407.78211545 -286.06761601 407.55020816 -282.69506836 407.515172 C-281.56676737 407.52126309 -281.56676737 407.52126309 -280.41567242 407.52747723 C-277.87473344 407.53748704 -275.33433855 407.52595976 -272.79341125 407.5146637 C-270.96154645 407.51740208 -269.12968322 407.52145226 -267.29782391 407.52670735 C-262.24803387 407.53733544 -257.19841977 407.5291386 -252.14863729 407.51795685 C-246.70890103 407.50914252 -241.26918849 407.51755032 -235.82945251 407.52381897 C-225.16671125 407.53332521 -214.50403748 407.52669118 -203.8413012 407.51455603 C-191.43480815 407.50096034 -179.02833133 407.50257173 -166.62183273 407.50468936 C-143.82243203 407.50797845 -121.02306322 407.49505122 -98.22367291 407.47484432 C-77.39868408 407.45647409 -56.57372958 407.45066182 -35.74873352 407.45611572 C-34.41162074 407.45646216 -33.07450795 407.45680825 -31.73739517 407.45715401 C-30.74584319 407.45741051 -30.74584319 407.45741051 -29.73425986 407.45767218 C-8.35644529 407.46315582 13.02135601 407.46103103 34.39916897 407.45062989 C36.89058876 407.44942255 39.38200855 407.44821656 41.87342834 407.44701195 C43.0993862 407.44640841 44.32534406 407.44580487 45.58845216 407.44518304 C54.24482715 407.44129716 62.90119597 407.44170011 71.55757141 407.44359779 C82.10088785 407.44571587 92.6441712 407.44052518 103.1874783 407.42598424 C108.57104391 407.4187207 113.95456124 407.41467985 119.33813095 407.4192276 C124.26033151 407.42328459 129.18243213 407.41819427 134.10461748 407.40560152 C135.89124267 407.40265786 137.67787719 407.40312927 139.46450007 407.4072446 C141.88151451 407.41230914 144.29818902 407.40522063 146.71517944 407.39491749 C147.41877024 407.39931397 148.12236103 407.40371046 148.84727275 407.40824017 C152.46973769 407.37856135 153.90244332 407.21218338 157.01005554 405.14044189 C157.46289235 403.1271097 157.46289235 403.1271097 157.38757896 400.76132965 C157.39540221 399.83548112 157.40322545 398.9096326 157.41128576 397.95572805 C157.40459359 396.93181668 157.39790143 395.9079053 157.39100647 394.85296631 C157.39568644 393.77052722 157.40036641 392.68808812 157.4051882 391.57284784 C157.41721827 387.92142888 157.40764962 384.27037971 157.39823914 380.61895752 C157.40230127 378.01110107 157.40764112 375.40324634 157.41416931 372.7953949 C157.42753627 366.43285043 157.42461579 360.0704119 157.41593139 353.70786321 C157.40916686 348.53867748 157.40823277 343.36952152 157.41150284 338.20033264 C157.41196254 337.46571034 157.41242224 336.73108804 157.41289587 335.97420445 C157.413855 334.48201397 157.41482764 332.9898235 157.41581364 331.49763304 C157.42437621 317.49262393 157.41451984 303.48767365 157.39841254 289.48267418 C157.38500856 277.4556441 157.38733641 265.42870088 157.40116882 253.40167236 C157.41720936 239.44810413 157.42355216 225.4945875 157.41433203 211.54101133 C157.41337635 210.05419128 157.41243323 208.56737122 157.41150284 207.08055115 C157.4108086 205.98312442 157.4108086 205.98312442 157.41010033 204.86352745 C157.40750585 199.69823608 157.41189127 194.53297735 157.4189415 189.36769104 C157.42821503 182.42055048 157.42164934 175.47357727 157.40425873 168.52645302 C157.40027632 165.96977831 157.40145765 163.41308984 157.40804672 160.85642052 C157.41618308 157.38006269 157.4060365 153.90424069 157.39100647 150.42791748 C157.39769863 149.4040061 157.4043908 148.38009473 157.41128576 147.32515574 C157.40346252 146.39930721 157.39563927 145.47345868 157.38757896 144.51955414 C157.38709191 143.71639062 157.38660485 142.91322711 157.38610303 142.08572531 C157.26200736 141.44378178 157.13791169 140.80183825 157.01005554 140.14044189 C152.25944562 136.97336861 147.22367806 137.69078985 141.63505554 137.64044189 C140.49810242 137.59919189 139.36114929 137.55794189 138.18974304 137.51544189 C130.85582565 137.44657882 128.39112186 137.93769508 124.01005554 144.14044189 Z " fill="#5793C9" transform="translate(323.9899444580078,-0.14044189453125)"/>
<path d="M0 0 C1.03039398 -0.00571014 2.06078796 -0.01142029 3.12240601 -0.01730347 C4.25233475 -0.01842133 5.38226349 -0.01953918 6.5464325 -0.02069092 C8.33216675 -0.02813828 8.33216675 -0.02813828 10.15397644 -0.03573608 C13.4206322 -0.04784488 16.68725217 -0.05530299 19.95392632 -0.05974674 C21.99576801 -0.06267942 24.03760411 -0.06678461 26.07944298 -0.07125092 C32.47065845 -0.08492341 38.86186112 -0.0945911 45.2530902 -0.09845281 C52.62561691 -0.10293215 59.99795808 -0.12047516 67.37042838 -0.1494534 C73.07245013 -0.17108611 78.77441975 -0.18115794 84.47648209 -0.18249393 C87.8804848 -0.18354089 91.28431305 -0.18942516 94.68827248 -0.20731354 C98.48748995 -0.22435125 102.28625491 -0.22249899 106.085495 -0.21600342 C107.20935104 -0.2252182 108.33320709 -0.23443298 109.49111938 -0.243927 C116.04708242 -0.20878137 120.84758159 0.22327515 125.87333679 4.85919189 C126.35157898 5.44700439 126.82982117 6.03481689 127.32255554 6.64044189 C127.81368835 7.22825439 128.30482117 7.81606689 128.81083679 8.42169189 C131.00113707 11.56088447 131.13922371 14.33745784 131.15722656 18.04100037 C131.16795952 19.5570134 131.16795952 19.5570134 131.1789093 21.10365295 C131.18159821 22.21173813 131.18428711 23.3198233 131.1870575 24.46148682 C131.19362869 25.62925659 131.20019989 26.79702637 131.20697021 28.00018311 C131.22671821 31.87375957 131.23836952 35.74729724 131.24833679 39.62091064 C131.25238555 40.95647006 131.25650251 42.29202927 131.26068687 43.62758827 C131.2797358 49.90454197 131.29396593 56.18148395 131.30229884 62.45846099 C131.31206244 69.69292399 131.33835985 76.92708031 131.37879974 84.16143531 C131.40901555 89.75987856 131.42377298 95.35823419 131.42707986 100.95675737 C131.42942472 104.29724423 131.44029845 107.63714382 131.46354103 110.97759056 C131.48789191 114.70944978 131.48697411 118.44050995 131.48002625 122.17242432 C131.49924133 123.81937035 131.49924133 123.81937035 131.5188446 125.49958801 C131.46680821 133.17916291 130.23888154 138.9116159 124.69755554 144.45294189 C118.77740243 148.17024734 114.08835947 149.59103999 107.10771179 149.43341064 C106.38514694 149.4291658 105.66258209 149.42492096 104.91812134 149.42054749 C102.63586861 149.40390608 100.35453621 149.36628438 98.07255554 149.32794189 C96.51462569 149.31287613 94.95668184 149.29919105 93.39872742 149.28692627 C89.60215497 149.25405071 85.80626067 149.20237279 82.01005554 149.14044189 C81.70301697 150.25193604 81.39597839 151.36343018 81.07963562 152.50860596 C79.48783408 157.91368237 77.00363189 161.68172749 72.44755554 165.01544189 C70.27383684 166.01869668 68.3275398 166.60149207 66.01005554 167.14044189 C66.00640991 168.05863708 66.00276428 168.97683228 65.99900818 169.92285156 C65.96114562 178.57491536 65.90431275 187.22660155 65.8261528 195.8783989 C65.78663904 200.32643869 65.75446984 204.77427936 65.73905945 209.22247314 C65.72391832 213.51506714 65.68951871 217.80711387 65.64174652 222.09946442 C65.62690633 223.73726902 65.61901301 225.37515175 65.61817169 227.01302338 C65.61580808 229.30706668 65.58878076 231.59959003 65.55595398 233.89337158 C65.54707153 235.19909119 65.53818909 236.50481079 65.52903748 237.85009766 C65.01005554 241.14044189 65.01005554 241.14044189 63.23083496 243.56202698 C60.84289186 245.25925318 59.81367474 245.6414595 56.9316864 245.64215088 C56.14084152 245.65153183 55.34999664 245.66091278 54.53518677 245.670578 C53.26784447 245.65372704 53.26784447 245.65372704 51.97489929 245.63653564 C51.09983231 245.63799088 50.22476532 245.63944611 49.32318115 245.64094543 C47.47650314 245.63928787 45.6298111 245.62774252 43.7832489 245.60699463 C40.95395916 245.5780075 38.12653965 245.58639447 35.29716492 245.59942627 C33.50223392 245.59318966 31.70730885 245.58479933 29.91239929 245.57403564 C29.06548019 245.57697128 28.2185611 245.57990692 27.34597778 245.58293152 C21.47783646 245.48843715 21.47783646 245.48843715 19.29058838 243.86128235 C17.49665942 241.45051596 17.59862328 239.10488549 17.51396179 236.17559814 C18.01005554 234.14044189 18.01005554 234.14044189 22.01005554 230.14044189 C31.25005554 230.14044189 40.49005554 230.14044189 50.01005554 230.14044189 C50.01005554 209.35044189 50.01005554 188.56044189 50.01005554 167.14044189 C47.04005554 166.15044189 47.04005554 166.15044189 44.01005554 165.14044189 C38.44740592 161.44824539 34.97200792 157.51678711 33.01005554 151.14044189 C33.01005554 150.15044189 33.01005554 149.16044189 33.01005554 148.14044189 C31.89034363 148.16138916 30.77063171 148.18233643 29.61698914 148.20391846 C25.44622177 148.27654616 21.27550986 148.322324 17.10429382 148.36016846 C15.30211473 148.38023222 13.50000033 148.40749002 11.69804382 148.44219971 C9.10136418 148.49095018 6.50554825 148.51346271 3.90849304 148.53106689 C2.70813919 148.56203461 2.70813919 148.56203461 1.48353577 148.59362793 C-3.84132913 148.5957438 -6.7554104 147.63890233 -10.98994446 144.14044189 C-11.57118073 143.44579834 -12.15241699 142.75115479 -12.75126648 142.03546143 C-15.75605959 139.49193275 -17.59745133 139.62435406 -21.50263977 139.59454346 C-22.46911942 139.57903694 -22.46911942 139.57903694 -23.4551239 139.56321716 C-25.57636157 139.53381296 -27.69664411 139.53229064 -29.81806946 139.53106689 C-31.29210731 139.51608345 -32.76612838 139.49935595 -34.24012756 139.48095703 C-38.11332474 139.43728885 -41.98629546 139.4172859 -45.85969543 139.40222168 C-49.8147063 139.38264844 -53.76947266 139.34067877 -57.72431946 139.30059814 C-65.47946206 139.225302 -73.23450202 139.17500729 -80.98994446 139.14044189 C-80.97838821 140.07228302 -80.97838821 140.07228302 -80.96659851 141.02294922 C-80.96060638 141.8361261 -80.95461426 142.64930298 -80.94844055 143.48712158 C-80.93688431 144.69740021 -80.93688431 144.69740021 -80.9250946 145.93212891 C-81.06231865 150.60497902 -83.28863775 154.30396287 -86.41572571 157.67950439 C-91.75166704 162.39498743 -96.27224103 163.3932625 -103.25947571 163.33575439 C-103.94047836 163.3329245 -104.62148102 163.3300946 -105.32312012 163.32717896 C-107.48307901 163.31604714 -109.6426124 163.29095646 -111.80244446 163.26544189 C-113.27314156 163.25540301 -114.74384522 163.24627875 -116.21455383 163.23809814 C-119.80648731 163.21613103 -123.3981743 163.1816501 -126.98994446 163.14044189 C-124.98994446 161.14044189 -124.98994446 161.14044189 -122.11494446 159.82794189 C-117.06992669 157.1036323 -114.79607181 153.47019759 -112.98994446 148.14044189 C-112.70824989 145.50404783 -112.70824989 145.50404783 -112.75166321 142.76153564 C-112.73554993 141.75800049 -112.71943665 140.75446533 -112.70283508 139.72052002 C-112.68587694 137.62162373 -112.68071177 135.52259976 -112.68721008 133.42364502 C-112.53285127 125.6808078 -112.53285127 125.6808078 -109.48603821 122.64825439 C-108.66232727 122.15067627 -107.83861633 121.65309814 -106.98994446 121.14044189 C-106.15648631 117.59748686 -106.15648631 117.59748686 -106.98994446 114.14044189 C-107.81494446 113.74856689 -108.63994446 113.35669189 -109.48994446 112.95294189 C-111.98994446 111.14044189 -111.98994446 111.14044189 -112.65400696 107.26934814 C-112.66727752 105.74721488 -112.65327465 104.22465033 -112.61494446 102.70294189 C-112.64394836 101.5572876 -112.64394836 101.5572876 -112.67353821 100.38848877 C-112.65432019 98.18033899 -112.55338397 96.27692167 -111.98994446 94.14044189 C-109.47822571 91.79669189 -109.47822571 91.79669189 -106.98994446 90.14044189 C-106.40231201 86.02701479 -106.65950888 84.63609526 -108.98994446 81.14044189 C-110.47494446 80.64544189 -110.47494446 80.64544189 -111.98994446 80.14044189 C-111.99359009 79.53180298 -111.99723572 78.92316406 -112.00099182 78.29608154 C-112.04294431 71.93620213 -112.11237899 65.57703582 -112.19746399 59.21759033 C-112.22561335 56.84722033 -112.24685775 54.47675752 -112.26094055 52.10626221 C-112.28245297 48.69009084 -112.3291484 45.27502834 -112.38056946 41.85919189 C-112.3817981 40.80679321 -112.38302673 39.75439453 -112.3842926 38.67010498 C-112.5349046 31.02873838 -113.90340487 25.3984559 -119.23994446 19.76544189 C-122.78810828 17.66879964 -125.95603083 16.9608989 -129.98994446 16.14044189 C-129.98994446 15.81044189 -129.98994446 15.48044189 -129.98994446 15.14044189 C-125.15195085 15.0409262 -120.31456421 14.96867153 -115.4757843 14.92071533 C-113.83277496 14.90070618 -112.18983587 14.87348976 -110.54707336 14.83868408 C-108.17368657 14.78968885 -105.80124797 14.76736685 -103.42744446 14.74981689 C-102.34100647 14.71884918 -102.34100647 14.71884918 -101.23262024 14.68725586 C-95.0281306 14.68457843 -89.62708658 16.53689394 -85.15010071 20.95684814 C-84.60676086 21.82116455 -84.60676086 21.82116455 -84.05244446 22.70294189 C-83.67217102 23.28173096 -83.29189758 23.86052002 -82.90010071 24.45684814 C-80.73467972 28.46241229 -80.85432594 32.2255188 -80.87641907 36.64117432 C-80.87627304 37.4023909 -80.87612701 38.16360748 -80.87597656 38.94789124 C-80.87667322 41.46392669 -80.88445408 43.97988812 -80.89228821 46.49591064 C-80.89415326 48.24040181 -80.89557675 49.9848935 -80.89657593 51.72938538 C-80.9003942 56.32102911 -80.91021862 60.91264122 -80.92127991 65.50427246 C-80.93330727 71.0133982 -80.93789956 76.52253451 -80.94373322 82.03166962 C-80.95343072 90.40128237 -80.97259211 98.77082573 -80.98994446 107.14044189 C-60.19994446 107.14044189 -39.40994446 107.14044189 -17.98994446 107.14044189 C-18.03635071 100.51981689 -18.08275696 93.89919189 -18.13056946 87.07794189 C-18.15101488 82.87610323 -18.17027117 78.67432617 -18.18525696 74.47247314 C-18.20914039 67.80746678 -18.2373524 61.14268087 -18.29170227 54.47784424 C-18.33525952 49.10266712 -18.35910265 43.7277265 -18.36945343 38.35238647 C-18.37682703 36.30472085 -18.39122598 34.25706773 -18.41286469 32.20950317 C-18.44202974 29.3346388 -18.44589496 26.46074362 -18.44404602 23.58575439 C-18.45842712 22.74489792 -18.47280823 21.90404144 -18.48762512 21.03770447 C-18.44366939 14.69443396 -16.96517019 9.27934679 -12.50709915 4.57601929 C-8.41441216 1.01854815 -5.30076012 0.01758864 0 0 Z " fill="#48D4E5" transform="translate(323.9899444580078,-0.14044189453125)"/>
<path d="M0 0 C1.04288681 -0.00571014 2.08577362 -0.01142029 3.16026306 -0.01730347 C4.30418015 -0.01842133 5.44809723 -0.01953918 6.62667847 -0.02069092 C7.83185623 -0.02565582 9.037034 -0.03062073 10.2787323 -0.03573608 C13.58692088 -0.0478473 16.89504622 -0.05530417 20.20324945 -0.05974674 C22.27258609 -0.06268021 24.34191721 -0.06678566 26.41125107 -0.07125092 C32.89270792 -0.0849272 39.37415213 -0.09459179 45.85562241 -0.09845281 C53.32376909 -0.10292649 60.7917321 -0.12044154 68.25982296 -0.1494534 C74.04002252 -0.17112385 79.82017062 -0.18116003 85.60041034 -0.18249393 C89.04866213 -0.18353863 92.49674129 -0.18937386 95.9449501 -0.20731354 C99.79855413 -0.22697139 103.65193192 -0.22248393 107.50558472 -0.21600342 C108.63735641 -0.2252182 109.76912811 -0.23443298 110.93519592 -0.243927 C118.66071003 -0.20333035 125.08380256 0.81813432 131.76681519 4.82794189 C137.99777751 11.41495921 138.51694163 18.09131352 138.34494019 26.85919189 C138.3392804 27.95767456 138.33362061 29.05615723 138.32778931 30.18792725 C138.30552272 33.67255509 138.25534271 37.15612846 138.20431519 40.64044189 C138.18423771 43.01282281 138.16598913 45.38521995 138.14962769 47.75762939 C138.10568984 53.5522558 138.03887499 59.34627348 137.95431519 65.14044189 C138.57306519 65.24356689 139.19181519 65.34669189 139.82931519 65.45294189 C141.95431519 66.14044189 141.95431519 66.14044189 143.95431519 69.14044189 C144.32931519 72.07794189 144.32931519 72.07794189 143.95431519 75.14044189 C142.07931519 77.51544189 142.07931519 77.51544189 139.95431519 79.14044189 C139.29431519 79.14044189 138.63431519 79.14044189 137.95431519 79.14044189 C137.95431519 84.75044189 137.95431519 90.36044189 137.95431519 96.14044189 C139.27431519 96.47044189 140.59431519 96.80044189 141.95431519 97.14044189 C143.95431519 99.14044189 143.95431519 99.14044189 144.32931519 102.51544189 C143.95431519 106.14044189 143.95431519 106.14044189 142.07931519 108.57794189 C139.95431519 110.14044189 139.95431519 110.14044189 137.95431519 110.14044189 C137.97526245 110.79528564 137.99620972 111.45012939 138.01779175 112.12481689 C138.10161901 115.12986518 138.15318413 118.13466653 138.20431519 121.14044189 C138.23783081 122.17040283 138.27134644 123.20036377 138.30587769 124.26153564 C138.39768306 131.4682574 137.59175419 137.22958213 132.54147339 142.65948486 C118.05430998 155.5436651 94.88457245 148.14044189 77.95431519 148.14044189 C77.95431519 201.27044189 77.95431519 254.40044189 77.95431519 309.14044189 C83.56431519 309.14044189 89.17431519 309.14044189 94.95431519 309.14044189 C99.95431519 312.14044189 99.95431519 312.14044189 100.95431519 313.14044189 C101.53794351 319.32690212 101.53794351 319.32690212 99.37643433 322.33990479 C96.09983936 324.77563585 93.94565134 324.64250941 89.88790894 324.63653564 C89.21260635 324.63799088 88.53730377 324.63944611 87.84153748 324.64094543 C86.41855541 324.6392901 84.99555476 324.62776942 83.57272339 324.60699463 C81.39511175 324.57798581 79.21992842 324.58640073 77.04220581 324.59942627 C75.65742836 324.59318984 74.27265859 324.58479964 72.88790894 324.57403564 C71.6303479 324.56428711 70.37278687 324.55453857 69.07711792 324.54449463 C65.95431519 324.14044189 65.95431519 324.14044189 64.08346558 322.80084229 C61.57932505 319.11853748 61.83088487 315.63537343 61.83406067 311.32582092 C61.83320624 310.62905375 61.83235182 309.93228657 61.8314715 309.21440524 C61.82982141 306.87437652 61.83533039 304.53441912 61.84078979 302.19439697 C61.84107179 300.51909893 61.84091368 298.84380077 61.84034729 297.16850281 C61.84005981 292.61509589 61.84594856 288.06171519 61.85292125 283.50831437 C61.85916302 278.7517143 61.85975924 273.99511366 61.86094666 269.23851013 C61.86405753 260.22878215 61.87226766 251.21906626 61.88229614 242.20934361 C61.89346482 231.95312258 61.89896964 221.69690098 61.90399158 211.44067538 C61.91445046 190.34059079 61.93204522 169.2405171 61.95431519 148.14044189 C61.13269897 148.15154495 60.31108276 148.16264801 59.46456909 148.17408752 C51.6969896 148.27454309 43.92972794 148.35053452 36.16166687 148.39950275 C32.16860089 148.42552497 28.17607455 148.46078565 24.18331909 148.51763916 C20.32533515 148.57222579 16.4678681 148.60191784 12.60952759 148.61482811 C11.14236318 148.6240206 9.675225 148.64197142 8.20828247 148.66909218 C0.08610835 148.81319381 -6.75574189 148.9125582 -13.04568481 143.14044189 C-19.02519899 136.84621644 -19.04568481 133.0902814 -19.04568481 124.14044189 C-25.97568481 124.14044189 -32.90568481 124.14044189 -40.04568481 124.14044189 C-40.04568481 123.81044189 -40.04568481 123.48044189 -40.04568481 123.14044189 C-33.11568481 123.14044189 -26.18568481 123.14044189 -19.04568481 123.14044189 C-19.0718689 119.85010986 -19.09805298 116.55977783 -19.12503052 113.16973877 C-19.20793945 102.28933539 -19.26313265 91.40891794 -19.30474567 80.52828217 C-19.33082094 73.93236051 -19.36618258 67.33676297 -19.42288208 60.74102783 C-19.47727358 54.37381308 -19.50712093 48.00690977 -19.52007103 41.63948059 C-19.52929792 39.21221516 -19.54731598 36.78496645 -19.5743351 34.35783386 C-19.6107185 30.95361719 -19.61562602 27.5506816 -19.61331177 24.14630127 C-19.63128815 23.14648224 -19.64926453 22.14666321 -19.66778564 21.11654663 C-19.61994363 14.59762519 -18.35039972 10.13861555 -14.04568481 5.14044189 C-9.37621391 1.49825459 -5.86867088 0.01924014 0 0 Z " fill="#48D5E5" transform="translate(74.04568481445313,14.85955810546875)"/>
<path d="M0 0 C4.18107099 2.37386814 7.2873227 5.46837059 9 10 C9.02459394 11.93745591 9.04508956 13.87496622 9.0625 15.8125 C9.35617407 19.07136511 9.35617407 19.07136511 11 22 C16.27901367 25.95464035 24.14608114 29.19458777 30.78515625 28.859375 C33.30020926 27.88351669 35.02573129 26.62569518 37.125 24.9375 C41.5745798 21.8747059 45.0335544 21.11169251 50.40625 21.3984375 C54.62376752 22.37659668 57.28691592 24.70675958 60 28 C61.79884705 31.59769411 61.71900242 35.14302578 61 39 C59.40234375 42.015625 59.40234375 42.015625 57.4375 45.125 C54.66035106 49.49530503 54.66035106 49.49530503 53.75 54.5 C55.31570218 58.8839661 57.05622009 63.1694261 58.94140625 67.42578125 C60 70 60 70 60 72 C60.8353125 72.05607422 60.8353125 72.05607422 61.6875 72.11328125 C68.23935952 72.67771509 74.23374231 73.67051984 79.375 78 C82.74761214 82.15090725 83.46138725 84.51173436 83.30078125 89.71875 C82.80853822 93.45212572 81.58752949 95.28624956 79 98 C73.05260094 101.77920266 66.93688771 102.71035959 60 103 C59.72736328 103.85271484 59.72736328 103.85271484 59.44921875 104.72265625 C58.22719217 108.47647124 57.00080029 112.0830584 55.25 115.625 C53.72533346 119.74159965 53.79695904 121.78935662 55 126 C56.17406389 127.91975312 57.43439945 129.66838072 58.84375 131.421875 C61.78231162 135.4326145 61.43421092 140.26543089 61 145 C59.35210532 149.63470379 56.42651768 151.18181842 52.23046875 153.30078125 C47.93677379 154.6467907 44.98419264 154.47957479 40.9296875 152.50390625 C39.92164063 151.86324219 38.91359375 151.22257813 37.875 150.5625 C32.37368741 146.82867643 32.37368741 146.82867643 26.01708984 146.33862305 C18.13038341 148.88441987 18.13038341 148.88441987 11 153 C9.44359176 156.21833569 9.2620793 158.49989989 9.1640625 162.05078125 C8.91799435 166.47414915 6.98868615 169.78014476 4 173 C-0.38137367 175.79818823 -4.97038798 175.63565397 -10 175 C-15.0015892 172.63561238 -17.12242603 170.16332842 -19 165 C-19.18813684 163.14589784 -19.37558211 161.29172544 -19.5625 159.4375 C-20.11249174 156.00238211 -20.37590856 154.50924934 -23.1015625 152.28515625 C-25.69264033 150.99744537 -28.27622009 149.97190348 -31 149 C-32.29445936 148.38080475 -33.58656713 147.75663954 -34.875 147.125 C-38.24526495 145.91170462 -38.79133413 145.82637987 -42 147 C-43.95877978 148.15206088 -45.8945046 149.34374811 -47.8125 150.5625 C-55.61128877 155.16227105 -55.61128877 155.16227105 -61 154 C-64.59408812 152.57437006 -67.34973614 150.73416887 -69.9375 147.8125 C-71.80040226 142.88128814 -72.03545221 138.43139518 -69.9453125 133.5234375 C-68.12902043 130.22401936 -66.08848207 127.13272311 -64 124 C-64.1279464 117.9865192 -66.52921186 113.020448 -68.94140625 107.57421875 C-70 105 -70 105 -70 103 C-70.70125 102.97421875 -71.4025 102.9484375 -72.125 102.921875 C-79.02911992 102.5091287 -85.53073174 101.87221444 -90.37890625 96.4609375 C-93.30258107 91.99902262 -93.59158098 88.23971725 -93 83 C-91.37604791 78.79682989 -88.94104728 76.92402469 -84.96484375 74.84765625 C-80.16124217 72.77532714 -75.25655247 71.67146547 -70 72 C-69.81824219 71.43152344 -69.63648438 70.86304688 -69.44921875 70.27734375 C-68.22719217 66.52352876 -67.00080029 62.9169416 -65.25 59.375 C-63.69476112 55.17585502 -63.75883565 53.30757039 -65 49 C-65.99015367 47.3561261 -67.01411291 45.73236125 -68.0625 44.125 C-70.63560287 40.01924991 -71.93053353 36.98724681 -71.6015625 32.11328125 C-70.50281011 28.25337836 -67.97977283 25.59379189 -65 23 C-61.24786577 21.12393288 -57.08498716 21.46464556 -53 22 C-49.75333937 23.33043585 -46.90296546 25.04094355 -44 27 C-41.289951 29.26756169 -41.289951 29.26756169 -38.79296875 28.76953125 C-37.41044922 28.38861328 -37.41044922 28.38861328 -36 28 C-34.16888672 27.51080078 -34.16888672 27.51080078 -32.30078125 27.01171875 C-28.19448952 25.71526242 -24.65817018 24.31248615 -21 22 C-19.56446516 18.80068302 -19.32803843 16.33039612 -19.1640625 12.84375 C-18.87531038 7.83871317 -16.07030402 5.19622214 -12.875 1.625 C-8.59602701 -0.79354995 -4.79338497 -1.00048845 0 0 Z " fill="#FE4C27" transform="translate(261,189)"/>
<path d="M0 0 C6.29874903 -0.07623218 12.59737851 -0.1286762 18.89648438 -0.16479492 C21.03813117 -0.17985641 23.17974724 -0.20030972 25.32128906 -0.22631836 C28.40437411 -0.26281728 31.48705038 -0.27975302 34.5703125 -0.29296875 C35.52366486 -0.30845261 36.47701721 -0.32393646 37.45925903 -0.33988953 C43.47379598 -0.341403 48.04738411 0.24375762 52.64453125 4.53515625 C55.8789433 8.764772 57.1241206 10.77687839 57.13422108 16.0551033 C57.13867892 17.13175444 57.14313676 18.20840558 57.14772969 19.3176825 C57.14754533 20.51006713 57.14736097 21.70245175 57.14717102 22.93096924 C57.15084771 24.19026237 57.1545244 25.44955551 57.1583125 26.74700904 C57.16834863 30.25399455 57.17205188 33.76096295 57.17470181 37.26796079 C57.1786001 41.04586089 57.18817877 44.82374737 57.19691467 48.60163879 C57.21669269 57.73105417 57.22674705 66.86047069 57.23564246 75.98990214 C57.24002323 80.28672332 57.24539059 84.58354326 57.25063133 88.88036346 C57.26764505 103.15996673 57.28213984 117.43956922 57.28938007 131.71918106 C57.29129004 135.42623139 57.29321036 139.13328172 57.29516602 142.84033203 C57.29564976 143.76172713 57.2961335 144.68312223 57.2966319 145.63243839 C57.30493447 160.56273904 57.33027458 175.49295963 57.36274669 190.42322531 C57.39579713 205.74402735 57.41382701 221.06478867 57.41702431 236.38562655 C57.4191913 244.99087152 57.42796738 253.59599975 57.45348549 262.20121002 C57.47516501 269.52900677 57.48325651 276.85665843 57.47351871 284.18448362 C57.46896595 287.92399632 57.47091637 291.6632095 57.49028015 295.40268135 C57.51108646 299.45569833 57.50095253 303.50804756 57.48774719 307.56109619 C57.49871644 308.74455793 57.50968568 309.92801966 57.52098733 311.14734387 C57.47153933 317.41173184 57.2535742 321.26352599 53 326 C47.75354617 330.8529698 44.05876304 331.12736764 37.046875 331.09765625 C36.38665344 331.0962413 35.72643188 331.09482635 35.04620361 331.09336853 C32.94742206 331.08779245 30.84874905 331.07524447 28.75 331.0625 C27.32291821 331.0574819 25.89583475 331.05291954 24.46875 331.04882812 C20.97913168 331.03783088 17.48957644 331.0205828 14 331 C15.94342449 328.99276157 17.83332303 327.35374948 20.0625 325.625 C23.53887545 322.51845173 24.77846546 320.18364074 25.24839699 315.55157918 C25.24763755 314.68771543 25.24687811 313.82385167 25.24609566 312.93381023 C25.25007775 311.93108725 25.25405985 310.92836427 25.25816262 309.89525574 C25.25233693 308.80089969 25.24651125 307.70654363 25.24050903 306.57902527 C25.24221788 305.41094072 25.24392673 304.24285617 25.24568737 303.03937513 C25.24841152 299.80116364 25.24216296 296.56311236 25.23213124 293.32491982 C25.22349309 289.83145094 25.22641716 286.3379895 25.22793579 282.84451294 C25.22898441 276.7931612 25.22271021 270.74185259 25.21146011 264.6905117 C25.19520497 255.94129862 25.18999709 247.19210638 25.18748413 238.44287983 C25.18310705 224.24779674 25.16979759 210.05273663 25.15087891 195.85766602 C25.13252045 182.06860469 25.11836377 168.2795496 25.10986328 154.49047852 C25.10933783 153.64049839 25.10881239 152.79051827 25.10827102 151.91478118 C25.10566094 147.65067408 25.10313352 143.38656694 25.10064721 139.12245977 C25.07991431 103.74829013 25.04468842 68.37414718 25 33 C22.37276604 31.68638302 20.27389439 31.78746091 17.3359375 31.68359375 C16.21445312 31.64169922 15.09296875 31.59980469 13.9375 31.55664062 C12.761875 31.51732422 11.58625 31.47800781 10.375 31.4375 C9.19164062 31.39431641 8.00828125 31.35113281 6.7890625 31.30664062 C3.85949672 31.20032574 0.92984412 31.09829358 -2 31 C-1.84152588 30.46987305 -1.68305176 29.93974609 -1.51977539 29.39355469 C-0.88524553 26.47155808 -0.78228868 23.69217153 -0.68359375 20.703125 C-0.64169922 19.49785156 -0.59980469 18.29257813 -0.55664062 17.05078125 C-0.51732422 15.79652344 -0.47800781 14.54226562 -0.4375 13.25 C-0.39431641 11.98027344 -0.35113281 10.71054688 -0.30664062 9.40234375 C-0.20060278 6.26833635 -0.09853942 3.13425067 0 0 Z " fill="#4C87BD" transform="translate(455,107)"/>
<path d="M0 0 C1.6921537 -0.00935994 1.6921537 -0.00935994 3.41849232 -0.01890898 C7.19481683 -0.034851 10.97049698 -0.02222923 14.74682617 -0.00964355 C17.45569183 -0.01286388 20.16453021 -0.02204182 22.87338257 -0.03088379 C29.46487857 -0.04865495 36.05619221 -0.04483536 42.6476953 -0.03323323 C48.00551202 -0.02419362 53.36327769 -0.02297718 58.72109985 -0.02732849 C59.48413007 -0.02794142 60.24716028 -0.02855436 61.03331262 -0.02918586 C62.58347378 -0.03046478 64.13363492 -0.03176164 65.68379605 -0.03307623 C80.21405432 -0.04447791 94.74421158 -0.03137481 109.27445328 -0.00987476 C121.73762555 0.00799587 134.20064878 0.00489164 146.66381836 -0.0135498 C161.14266125 -0.03496382 175.62141566 -0.04337931 190.10027218 -0.03110075 C191.6446781 -0.02982658 193.18908404 -0.02856909 194.73348999 -0.02732849 C195.49333453 -0.02671139 196.25317906 -0.02609429 197.03604919 -0.02545848 C202.38640998 -0.02200717 207.73671456 -0.0278292 213.08706665 -0.0372467 C219.60886263 -0.04847398 226.13046607 -0.04541146 232.65224004 -0.02412373 C235.97882605 -0.0136227 239.30482597 -0.01163343 242.63145065 -0.02272034 C246.23948456 -0.03363716 249.84661371 -0.01995708 253.45458984 0 C254.50332685 -0.00892289 255.55206385 -0.01784577 256.63258076 -0.02703905 C262.87371941 0.04000392 266.62980048 0.83104738 271.72729492 4.50793457 C274.54775791 7.9363169 275.60589233 11.65811644 276.22729492 16.00793457 C275.41713504 21.67905376 273.689458 25.7941733 269.33818054 29.59459686 C264.75927052 32.54495203 259.76854432 32.06027978 254.4921875 32.01586914 C252.78800643 32.02522908 252.78800643 32.02522908 251.04939747 32.03477812 C247.23999634 32.05074102 243.43123213 32.03809021 239.62182617 32.0255127 C236.8917814 32.02873177 234.16176374 32.03790931 231.43173218 32.04675293 C224.78495555 32.06453504 218.13835965 32.06069961 211.49157596 32.04910237 C206.08939046 32.04006708 200.68725559 32.03884445 195.2850647 32.04319763 C194.51605955 32.04381056 193.7470544 32.0444235 192.95474607 32.045055 C191.39250364 32.04633391 189.83026124 32.04763076 188.26801884 32.04894537 C173.62047994 32.06035026 158.9730412 32.04723891 144.32551873 32.0257439 C131.75854762 32.00787298 119.1917243 32.01097712 106.62475586 32.02941895 C92.02946762 32.05082729 77.43426716 32.05925163 62.83896542 32.04696989 C61.28248534 32.0456957 59.72600525 32.04443822 58.16952515 32.04319763 C57.02081246 32.04227198 57.02081246 32.04227198 55.84889346 32.04132763 C50.45349095 32.03787461 45.05814413 32.04370201 39.66275024 32.05311584 C33.08710323 32.06433682 26.51164719 32.06129384 19.93602204 32.03999287 C16.58121451 32.02948337 13.22698891 32.02751278 9.87214279 32.03858948 C6.23524332 32.04949175 2.59924418 32.03584392 -1.03759766 32.01586914 C-2.62776845 32.02925347 -2.62776845 32.02925347 -4.2500639 32.04290819 C-10.23880134 31.97894492 -13.70650781 31.49606998 -18.27270508 27.50793457 C-20.97738211 24.00053253 -22.15055706 20.36297071 -22.77270508 16.00793457 C-22.15130249 11.65811644 -21.09316807 7.9363169 -18.27270508 4.50793457 C-12.2229852 0.14419514 -7.32794783 -0.0623478 0 0 Z " fill="#5793C9" transform="translate(129.272705078125,480.4920654296875)"/>
<path d="M0 0 C12.38486557 8.32306486 21.19550999 20.22341837 24.66796875 34.79296875 C26.38939125 50.62371921 24.13025674 65.26499028 14.125 78.1015625 C10.71655324 81.83513931 7.0251944 85.22731303 3.1484375 88.47143555 C-2.56320067 93.39103014 -4.08762421 98.32652651 -5.33203125 105.79296875 C-19.19203125 105.79296875 -33.05203125 105.79296875 -47.33203125 105.79296875 C-47.99203125 103.15296875 -48.65203125 100.51296875 -49.33203125 97.79296875 C-51.54115157 92.51028973 -54.13088563 90.00482218 -58.64453125 86.48046875 C-64.10900122 82.19632429 -67.79293651 77.73670868 -71.33203125 71.79296875 C-71.73035156 71.13683594 -72.12867188 70.48070313 -72.5390625 69.8046875 C-79.29258149 57.58764753 -80.1739759 43.13662775 -76.44140625 29.84375 C-70.4188653 13.28176238 -60.79901151 3.79929983 -45.359375 -3.91015625 C-30.45150407 -10.2964958 -13.79982431 -8.06483239 0 0 Z " fill="#FED559" transform="translate(408.33203125,30.20703125)"/>
<path d="M0 0 C1.01255859 0.00821777 2.02511719 0.01643555 3.06835938 0.02490234 C4.17308594 0.02876953 5.2778125 0.03263672 6.41601562 0.03662109 C7.56972656 0.06111328 8.7234375 0.08560547 9.91210938 0.11083984 C11.64267578 0.11277344 11.64267578 0.11277344 13.40820312 0.11474609 C21.99066506 0.20487697 21.99066506 0.20487697 25.41210938 2.48583984 C25.78815687 4.43112326 25.78815687 4.43112326 25.7896328 6.86495209 C25.79745604 7.79080061 25.80527928 8.71664914 25.81333959 9.67055368 C25.80664743 10.69446506 25.79995526 11.71837644 25.7930603 12.77331543 C25.79774027 13.85575452 25.80242025 14.93819362 25.80724204 16.0534339 C25.8192721 19.70485285 25.80970345 23.35590203 25.80029297 27.00732422 C25.8043551 29.61518067 25.80969496 32.2230354 25.81622314 34.83088684 C25.8295901 41.19343131 25.82666962 47.55586984 25.81798522 53.91841853 C25.81122069 59.08760426 25.81028661 64.25676022 25.81355667 69.4259491 C25.81401637 70.1605714 25.81447607 70.8951937 25.8149497 71.65207729 C25.81590884 73.14426777 25.81688148 74.63645824 25.81786747 76.1286487 C25.82643004 90.13365781 25.81657367 104.13860809 25.80046637 118.14360756 C25.78706239 130.17063764 25.78939024 142.19758086 25.80322266 154.22460938 C25.8192632 168.17817761 25.82560599 182.13169424 25.81638587 196.0852704 C25.81543018 197.57209046 25.81448707 199.05891052 25.81355667 200.54573059 C25.81309384 201.27734841 25.81263102 202.00896623 25.81215417 202.76275429 C25.80955969 207.92804566 25.8139451 213.09330439 25.82099533 218.2585907 C25.83026886 225.20573126 25.82370317 232.15270447 25.80631256 239.09982872 C25.80233015 241.65650343 25.80351148 244.2131919 25.81010056 246.76986122 C25.81823691 250.24621905 25.80809034 253.72204105 25.7930603 257.19836426 C25.79975247 258.22227563 25.80644463 259.24618701 25.81333959 260.301126 C25.80551635 261.22697453 25.79769311 262.15282306 25.7896328 263.1067276 C25.78890221 264.31147287 25.78890221 264.31147287 25.78815687 265.54055643 C25.66406119 266.18249996 25.53996552 266.82444348 25.41210938 267.48583984 C21.81693179 269.8826249 19.25833694 269.76288383 15.10885334 269.7319355 C13.97920417 269.73539703 13.97920417 269.73539703 12.8267338 269.7389285 C10.28286487 269.74425616 7.73924503 269.73522159 5.19538879 269.72634888 C3.36138766 269.72722038 1.52738677 269.72897034 -0.30661279 269.73152721 C-5.36216514 269.73601563 -10.41763332 269.72797659 -15.47317493 269.71797109 C-20.91898088 269.70936035 -26.36478181 269.71225506 -31.81059265 269.71377563 C-41.25109679 269.714826 -50.69157334 269.70853364 -60.13207054 269.69729996 C-73.78156004 269.68106835 -87.43103616 269.67583935 -101.08053426 269.67332397 C-123.22418841 269.66894319 -145.36782853 269.65564085 -167.51147461 269.63671875 C-189.02612227 269.61835534 -210.540766 269.60418544 -232.05541992 269.59570312 C-232.71838617 269.59544007 -233.38135241 269.59517702 -234.06440855 269.594906 C-241.3826875 269.59200734 -248.70096649 269.58922364 -256.01924551 269.58648705 C-311.20880404 269.56574262 -366.39834663 269.53050668 -421.58789062 269.48583984 C-421.58789062 269.15583984 -421.58789062 268.82583984 -421.58789062 268.48583984 C-284.30789063 268.48583984 -147.02789062 268.48583984 -5.58789062 268.48583984 C-5.70673047 181.78317535 -5.70673047 181.78317535 -5.8581543 95.08056641 C-5.8717041 78.34082031 -5.8717041 78.34082031 -5.8742218 70.51312256 C-5.87702546 65.02659228 -5.8880554 59.54015036 -5.90461731 54.0536499 C-5.92367743 47.73024217 -5.93240691 41.40692216 -5.92822548 35.08348547 C-5.92641366 31.84688512 -5.93099906 28.61052139 -5.94553602 25.37394762 C-5.96036712 21.91224251 -5.9568942 18.45103438 -5.94865417 14.98931885 C-5.96176116 13.4664155 -5.96176116 13.4664155 -5.97513294 11.91274643 C-5.96617402 10.52094036 -5.96617402 10.52094036 -5.95703411 9.101017 C-5.95874285 7.90034131 -5.95874285 7.90034131 -5.96048611 6.67540956 C-5.31405446 2.87663258 -3.81598353 0.71639691 0 0 Z " fill="#8BEFFD" transform="translate(455.587890625,137.51416015625)"/>
<path d="M0 0 C4.44739413 -0.07449251 8.8944519 -0.12876257 13.34228516 -0.16479492 C14.85341727 -0.17982543 16.36450618 -0.20025564 17.87548828 -0.22631836 C20.05512187 -0.26295689 22.23417575 -0.27978338 24.4140625 -0.29296875 C25.7232666 -0.3086792 27.0324707 -0.32438965 28.38134766 -0.34057617 C33.06970098 0.10067689 36.39986057 1.5239804 39.86328125 4.71875 C40.34152344 5.3065625 40.81976563 5.894375 41.3125 6.5 C42.04919922 7.38171875 42.04919922 7.38171875 42.80078125 8.28125 C44.99108152 11.42044257 45.12916817 14.19701594 45.14717102 17.90055847 C45.15432632 18.91123383 45.16148163 19.92190918 45.16885376 20.96321106 C45.17154266 22.07129623 45.17423157 23.17938141 45.17700195 24.32104492 C45.18685875 26.07269958 45.18685875 26.07269958 45.19691467 27.85974121 C45.21666267 31.73331768 45.22831398 35.60685534 45.23828125 39.48046875 C45.24233001 40.81602817 45.24644697 42.15158738 45.25063133 43.48714638 C45.26968026 49.76410008 45.28391039 56.04104205 45.2922433 62.31801909 C45.30200689 69.5524821 45.3283043 76.78663841 45.36874419 84.02099341 C45.39896001 89.61943666 45.41371744 95.2177923 45.41702431 100.81631547 C45.41936918 104.15680233 45.4302429 107.49670193 45.45348549 110.83714867 C45.47783637 114.56900788 45.47691857 118.30006805 45.4699707 122.03198242 C45.48278076 123.12994644 45.49559082 124.22791046 45.50878906 125.35914612 C45.45675267 133.03872101 44.228826 138.771174 38.6875 144.3125 C32.76734689 148.02980544 28.07830393 149.4505981 21.09765625 149.29296875 C20.3750914 149.28872391 19.65252655 149.28447906 18.9080658 149.28010559 C16.62581307 149.26346418 14.34448067 149.22584248 12.0625 149.1875 C10.50457015 149.17243423 8.9466263 149.15874916 7.38867188 149.14648438 C3.59209943 149.11360882 -0.20379487 149.0619309 -4 149 C-4.03738281 148.22914063 -4.07476562 147.45828125 -4.11328125 146.6640625 C-4.17902344 145.66117188 -4.24476563 144.65828125 -4.3125 143.625 C-4.37050781 142.62726563 -4.42851562 141.62953125 -4.48828125 140.6015625 C-4.65714844 139.74304688 -4.82601563 138.88453125 -5 138 C-5.99 137.34 -6.98 136.68 -8 136 C-7.76726645 134.62197239 -7.51274601 133.24762141 -7.25 131.875 C-7.11078125 131.10929688 -6.9715625 130.34359375 -6.828125 129.5546875 C-4.79159695 123.27219059 -0.44905044 119.36710041 4.375 115.1875 C14.96637307 105.62617029 21.45907195 94.50223039 22.44921875 80.0078125 C22.82769224 69.4977423 22.4165825 58.91331324 15.890625 50.17578125 C12.15848429 43.76627305 13.47859227 35.04095699 13.50927734 27.81542969 C13.69357464 16.73761855 13.69357464 16.73761855 9 7 C9 6.34 9 5.68 9 5 C6.06279492 3.47700477 3.0831351 2.19899698 0 1 C0 0.67 0 0.34 0 0 Z " fill="#22C0D4" transform="translate(410,0)"/>
<path d="M0 0 C4.83799361 -0.09951569 9.67538025 -0.17177037 14.51416016 -0.21972656 C16.1571695 -0.23973571 17.80010859 -0.26695213 19.44287109 -0.30175781 C21.81625788 -0.35075305 24.18869649 -0.37307504 26.5625 -0.390625 C27.64893799 -0.42159271 27.64893799 -0.42159271 28.75732422 -0.45318604 C34.96181386 -0.45586346 40.36285788 1.39645205 44.83984375 5.81640625 C45.38318359 6.68072266 45.38318359 6.68072266 45.9375 7.5625 C46.31777344 8.14128906 46.69804687 8.72007813 47.08984375 9.31640625 C48.8380494 12.55021156 49.12937119 15.22428401 49.14717102 18.82463074 C49.15432632 19.81847778 49.16148163 20.81232483 49.16885376 21.83628845 C49.17154266 22.92567215 49.17423157 24.01505585 49.17700195 25.13745117 C49.18685875 26.85984512 49.18685875 26.85984512 49.19691467 28.61703491 C49.21666166 32.42568016 49.22831379 36.23428594 49.23828125 40.04296875 C49.24235678 41.34310724 49.2464323 42.64324574 49.25063133 43.98278236 C49.26934635 50.15508757 49.28391016 56.32737298 49.2922433 62.49970073 C49.30200651 69.61304501 49.32830299 76.72607735 49.36874419 83.83931178 C49.39896247 89.34433759 49.41371767 94.84927428 49.41702431 100.35438138 C49.41936888 103.63892776 49.43024058 106.92306571 49.45348549 110.20754051 C49.47784047 113.87713783 49.47691784 117.54592272 49.4699707 121.21557617 C49.48278076 122.29483871 49.49559082 123.37410126 49.50878906 124.48606873 C49.46047419 131.4993275 48.49638869 137.23642021 43.58801746 142.51988506 C38.25806836 147.25447107 33.72285184 148.25286298 26.73046875 148.1953125 C26.04946609 148.1924826 25.36846344 148.18965271 24.66682434 148.18673706 C22.50686545 148.17560525 20.34733206 148.15051457 18.1875 148.125 C16.71680289 148.11496111 15.24609924 148.10583685 13.77539062 148.09765625 C10.18345714 148.07568913 6.59177015 148.0412082 3 148 C5 146 5 146 7.875 144.6875 C12.92001777 141.9631904 15.19387265 138.32975569 17 133 C17.28169457 130.36360594 17.28169457 130.36360594 17.23828125 127.62109375 C17.25439453 126.61755859 17.27050781 125.61402344 17.28710938 124.58007812 C17.30406752 122.48118184 17.30923269 120.38215786 17.30273438 118.28320312 C17.45709319 110.54036591 17.45709319 110.54036591 20.50390625 107.5078125 C21.32761719 107.01023437 22.15132812 106.51265625 23 106 C23.83345815 102.45704496 23.83345815 102.45704496 23 99 C22.175 98.608125 21.35 98.21625 20.5 97.8125 C18 96 18 96 17.3359375 92.12890625 C17.32266694 90.60677299 17.33666981 89.08420844 17.375 87.5625 C17.34599609 86.4168457 17.34599609 86.4168457 17.31640625 85.24804688 C17.33562426 83.0398971 17.43656049 81.13647977 18 79 C20.51171875 76.65625 20.51171875 76.65625 23 75 C23.58763244 70.8865729 23.33043558 69.49565336 21 66 C19.515 65.505 19.515 65.505 18 65 C17.99635437 64.39136108 17.99270874 63.78272217 17.98895264 63.15563965 C17.94700014 56.79576024 17.87756546 50.43659393 17.79248047 44.07714844 C17.76433111 41.70677844 17.74308671 39.33631562 17.72900391 36.96582031 C17.70749149 33.54964894 17.66079606 30.13458645 17.609375 26.71875 C17.60814636 25.66635132 17.60691772 24.61395264 17.60565186 23.52966309 C17.45503986 15.88829648 16.08653958 10.25801401 10.75 4.625 C7.20183618 2.52835774 4.03391363 1.82045701 0 1 C0 0.67 0 0.34 0 0 Z " fill="#22C0D4" transform="translate(194,15)"/>
<path d="M0 0 C30.36 0 60.72 0 92 0 C92 14.52 92 29.04 92 44 C61.64 44 31.28 44 0 44 C0 29.48 0 14.96 0 0 Z " fill="#DCDFE8" transform="translate(210,437)"/>
<path d="M0 0 C10.96934299 8.42940829 18.77548781 19.47077012 22 33 C23.7214225 48.83075046 21.46228799 63.47202153 11.45703125 76.30859375 C8.04858449 80.04217056 4.35722565 83.43434428 0.48046875 86.6784668 C-5.23116942 91.59806139 -6.75559296 96.53355776 -8 104 C-18.56 104 -29.12 104 -40 104 C-38.55843142 93.90901996 -34.95738831 89.68095063 -27.5625 83.125 C-17.01623676 73.73322241 -10.78364337 61.5456008 -9.7265625 47.3203125 C-9.20490031 32.16675039 -12.70964576 19.61752142 -23 8 C-28.74235142 1.90999056 -35.70847719 -2.00181499 -43 -6 C-42 -8 -42 -8 -40.375 -8.609375 C-26.02510224 -10.96955555 -12.0428378 -8.09321018 0 0 Z " fill="#FEBD54" transform="translate(411,32)"/>
<path d="M0 0 C4.95 0 9.9 0 15 0 C15 53.46 15 106.92 15 162 C21.93 162 28.86 162 36 162 C39 165 39 165 39.4375 168.4375 C39 172 39 172 37.41430664 174.19165039 C34.14402045 176.64114071 31.99371668 176.50207102 27.93359375 176.49609375 C27.25829117 176.49754898 26.58298859 176.49900421 25.88722229 176.50050354 C24.46424022 176.4988482 23.04123958 176.48732752 21.6184082 176.46655273 C19.44079657 176.43754391 17.26561324 176.44595884 15.08789062 176.45898438 C13.70311318 176.45274795 12.3183434 176.44435774 10.93359375 176.43359375 C9.0472522 176.41897095 9.0472522 176.41897095 7.12280273 176.40405273 C4 176 4 176 2.12915039 174.66040039 C-0.37499013 170.97809559 -0.12343031 167.49493154 -0.12025452 163.18537903 C-0.12110894 162.48861185 -0.12196337 161.79184468 -0.12284368 161.07396334 C-0.12449377 158.73393462 -0.1189848 156.39397722 -0.11352539 154.05395508 C-0.11324339 152.37865704 -0.1134015 150.70335888 -0.1139679 149.02806091 C-0.11425537 144.47465399 -0.10836663 139.92127329 -0.10139394 135.36787248 C-0.09515217 130.61127241 -0.09455595 125.85467177 -0.09336853 121.09806824 C-0.09025765 112.08834025 -0.08204752 103.07862437 -0.07201904 94.06890172 C-0.06085037 83.81268068 -0.05534555 73.55645908 -0.05032361 63.30023348 C-0.03986472 42.20014871 -0.02206906 21.10007554 0 0 Z " fill="#515570" transform="translate(136,163)"/>
<path d="M0 0 C6.39389177 3.89098371 12.44984247 9.96907492 14.28515625 17.390625 C15.17373125 26.267119 15.25780644 34.63812523 10.28515625 42.390625 C9.41890625 43.751875 9.41890625 43.751875 8.53515625 45.140625 C2.44212183 51.23365942 -4.78315298 54.66404186 -13.40234375 54.828125 C-21.74928329 54.70563322 -27.34030021 52.32501069 -33.58984375 46.890625 C-34.29109375 46.065625 -34.99234375 45.240625 -35.71484375 44.390625 C-36.43671875 43.58625 -37.15859375 42.781875 -37.90234375 41.953125 C-43.0124661 34.72846927 -42.52241068 25.83642918 -41.71484375 17.390625 C-40.6042965 13.84084004 -39.05725629 11.26082163 -36.71484375 8.390625 C-35.93560547 7.42382812 -35.93560547 7.42382812 -35.140625 6.4375 C-25.97942017 -3.72737995 -12.37951179 -5.71671764 0 0 Z " fill="#5892C7" transform="translate(269.71484375,250.609375)"/>
<path d="M0 0 C1.07528458 -0.00983414 2.15056915 -0.01966827 3.25843811 -0.02980042 C4.43309631 -0.02013245 5.60775452 -0.01046448 6.81800842 -0.00050354 C8.67952293 -0.00860802 8.67952293 -0.00860802 10.5786438 -0.01687622 C13.97981321 -0.0272422 17.38001019 -0.01965884 20.78109431 -0.00316501 C24.34219551 0.01069214 27.90326755 0.00422455 31.46438599 0.0007019 C37.4456242 -0.00200006 43.42666172 0.0114728 49.40785217 0.03465271 C56.31867783 0.06125036 63.2291677 0.06301344 70.14002699 0.05126435 C76.79183612 0.04047617 83.44352404 0.04668254 90.09532356 0.06081963 C92.92417333 0.06657168 95.75293416 0.06650289 98.5817852 0.06175423 C102.5343529 0.05608564 106.48658616 0.07532463 110.43910217 0.09715271 C111.61173615 0.09265106 112.78437012 0.08814941 113.99253845 0.08351135 C115.60969505 0.0983683 115.60969505 0.0983683 117.25952148 0.11352539 C118.19363326 0.11595529 119.12774504 0.11838518 120.09016323 0.12088871 C123.52247098 0.62235597 126.22533698 2.03328986 128.69325256 4.50120544 C129.2811584 10.73300731 129.2811584 10.73300731 127.01055908 13.69992828 C124.19508476 15.88843876 122.83628178 16.00353107 119.30384827 16.00914001 C118.21029022 16.02041931 117.11673218 16.03169861 115.99003601 16.0433197 C114.79510529 16.03522278 113.60017456 16.02712585 112.36903381 16.01878357 C111.10691071 16.02579285 109.8447876 16.03280212 108.54441833 16.0400238 C105.08566285 16.05825268 101.62738485 16.05119187 98.16862106 16.03850746 C94.54831916 16.02837734 90.92805803 16.03777316 87.30775452 16.04405212 C81.22817142 16.05132853 75.14878271 16.04174116 69.06922913 16.02268982 C62.04131015 16.00092088 55.01385534 16.00797227 47.98594761 16.02999544 C41.95099446 16.04814978 35.91618101 16.05070767 29.88120937 16.04024076 C26.27718943 16.03400594 22.67338763 16.03316966 19.06938171 16.04638672 C15.05179879 16.06009143 11.03501553 16.04109525 7.01747131 16.01878357 C5.82254059 16.02688049 4.62760986 16.03497742 3.39646912 16.0433197 C2.30291107 16.03204041 1.20935303 16.02076111 0.08265686 16.00914001 C-1.34201653 16.00687786 -1.34201653 16.00687786 -2.79547119 16.00457001 C-6.08246582 15.34571911 -7.2752504 14.12329011 -9.30674744 11.50120544 C-9.80674744 8.00120544 -9.80674744 8.00120544 -9.30674744 4.50120544 C-6.45772187 0.83439654 -4.59194901 0.00102922 0 0 Z " fill="#B3FBFE" transform="translate(89.30674743652344,109.49879455566406)"/>
<path d="M0 0 C1.07528458 -0.00983414 2.15056915 -0.01966827 3.25843811 -0.02980042 C4.43309631 -0.02013245 5.60775452 -0.01046448 6.81800842 -0.00050354 C8.67952293 -0.00860802 8.67952293 -0.00860802 10.5786438 -0.01687622 C13.97981321 -0.0272422 17.38001019 -0.01965884 20.78109431 -0.00316501 C24.34219551 0.01069214 27.90326755 0.00422455 31.46438599 0.0007019 C37.4456242 -0.00200006 43.42666172 0.0114728 49.40785217 0.03465271 C56.31867783 0.06125036 63.2291677 0.06301344 70.14002699 0.05126435 C76.79183612 0.04047617 83.44352404 0.04668254 90.09532356 0.06081963 C92.92417333 0.06657168 95.75293416 0.06650289 98.5817852 0.06175423 C102.5343529 0.05608564 106.48658616 0.07532463 110.43910217 0.09715271 C111.61173615 0.09265106 112.78437012 0.08814941 113.99253845 0.08351135 C115.60969505 0.0983683 115.60969505 0.0983683 117.25952148 0.11352539 C118.19363326 0.11595529 119.12774504 0.11838518 120.09016323 0.12088871 C123.23275755 0.58002824 125.12984012 1.65521649 127.69325256 3.50120544 C129.11367077 6.34204186 129.00777529 8.35597822 128.69325256 11.50120544 C126.66370053 14.11075437 125.45988228 15.34754085 122.18197632 16.00457001 C121.23219406 16.00607811 120.2824118 16.00758621 119.30384827 16.00914001 C118.21029022 16.02041931 117.11673218 16.03169861 115.99003601 16.0433197 C114.79510529 16.03522278 113.60017456 16.02712585 112.36903381 16.01878357 C111.10691071 16.02579285 109.8447876 16.03280212 108.54441833 16.0400238 C105.08566285 16.05825268 101.62738485 16.05119187 98.16862106 16.03850746 C94.54831916 16.02837734 90.92805803 16.03777316 87.30775452 16.04405212 C81.22817142 16.05132853 75.14878271 16.04174116 69.06922913 16.02268982 C62.04131015 16.00092088 55.01385534 16.00797227 47.98594761 16.02999544 C41.95099446 16.04814978 35.91618101 16.05070767 29.88120937 16.04024076 C26.27718943 16.03400594 22.67338763 16.03316966 19.06938171 16.04638672 C15.05179879 16.06009143 11.03501553 16.04109525 7.01747131 16.01878357 C5.82254059 16.02688049 4.62760986 16.03497742 3.39646912 16.0433197 C2.30291107 16.03204041 1.20935303 16.02076111 0.08265686 16.00914001 C-1.34201653 16.00687786 -1.34201653 16.00687786 -2.79547119 16.00457001 C-6.08246582 15.34571911 -7.2752504 14.12329011 -9.30674744 11.50120544 C-9.80674744 8.00120544 -9.80674744 8.00120544 -9.30674744 4.50120544 C-6.45772187 0.83439654 -4.59194901 0.00102922 0 0 Z " fill="#B3FBFE" transform="translate(89.30674743652344,78.49879455566406)"/>
<path d="M0 0 C20.79 0 41.58 0 63 0 C63.33 8.58 63.66 17.16 64 26 C64.495 28.475 64.495 28.475 65 31 C43.55 31 22.1 31 0 31 C0 20.77 0 10.54 0 0 Z " fill="#5693C9" transform="translate(243,107)"/>
<path d="M0 0 C4.95 0 9.9 0 15 0 C15.09035767 9.57930341 15.16374831 19.15832394 15.20724869 28.737957 C15.22812638 33.18614277 15.25644702 37.63402194 15.30175781 42.08203125 C15.34520957 46.37439234 15.36913574 50.66645848 15.37950897 54.95902252 C15.3869016 56.59692275 15.40133775 58.23480677 15.42292023 59.87258148 C15.45194647 62.16638609 15.45595651 64.45897106 15.45410156 66.75292969 C15.46298401 68.05864929 15.47186646 69.3643689 15.48101807 70.70965576 C15 74 15 74 13.22651672 76.42158508 C10.83535948 78.11671641 9.80477677 78.50101733 6.92163086 78.50170898 C6.13078598 78.51108994 5.3399411 78.52047089 4.52513123 78.53013611 C3.68023636 78.51890213 2.83534149 78.50766815 1.96484375 78.49609375 C1.08977676 78.49754898 0.21470978 78.49900421 -0.68687439 78.50050354 C-2.53355241 78.49884598 -4.38024444 78.48730062 -6.22680664 78.46655273 C-9.05609638 78.43756561 -11.88351589 78.44595258 -14.71289062 78.45898438 C-16.50782162 78.45274777 -18.30274669 78.44435744 -20.09765625 78.43359375 C-20.94457535 78.43652939 -21.79149445 78.43946503 -22.66407776 78.44248962 C-28.53221909 78.34799526 -28.53221909 78.34799526 -30.71946716 76.72084045 C-32.51339612 74.31007406 -32.41143227 71.96444359 -32.49609375 69.03515625 C-32 67 -32 67 -28 63 C-18.76 63 -9.52 63 0 63 C0 42.21 0 21.42 0 0 Z " fill="#515570" transform="translate(374,167)"/>
<path d="M0 0 C30.36 0 60.72 0 92 0 C92 14.52 92 29.04 92 44 C81.77 44 71.54 44 61 44 C61 29.81 61 15.62 61 1 C40.87 1 20.74 1 0 1 C0 0.67 0 0.34 0 0 Z " fill="#C9CCD9" transform="translate(210,437)"/>
<path d="M0 0 C0.80763794 -0.00630432 1.61527588 -0.01260864 2.4473877 -0.019104 C3.74283508 -0.01303131 3.74283508 -0.01303131 5.06445312 -0.00683594 C5.95934448 -0.00874939 6.85423584 -0.01066284 7.77624512 -0.01263428 C9.66577435 -0.01399353 11.555313 -0.01031522 13.44482422 -0.00195312 C16.33517455 0.00875007 19.22490335 -0.00185719 22.11523438 -0.01464844 C23.95247533 -0.0133268 25.7897159 -0.01076431 27.62695312 -0.00683594 C28.49058472 -0.0108844 29.35421631 -0.01493286 30.24401855 -0.019104 C31.05165649 -0.01279968 31.85929443 -0.00649536 32.69140625 0 C33.39881958 0.00159119 34.10623291 0.00318237 34.83508301 0.00482178 C37.17235891 0.30004991 38.80682301 1.10620757 40.84570312 2.25878906 C41.21627431 11.38582017 41.18146367 17.36634027 35.97070312 25.00878906 C31.5832269 29.65435213 27.02187876 31.31328537 20.76367188 31.49707031 C19.18694887 31.5275192 17.61010304 31.5520742 16.03320312 31.57128906 C15.25138672 31.60029297 14.46957031 31.62929687 13.6640625 31.65917969 C7.00088401 31.73154503 2.93675473 30.06142612 -2.08007812 25.51269531 C-2.53769531 24.95453125 -2.9953125 24.39636719 -3.46679688 23.82128906 C-3.93730469 23.26570313 -4.4078125 22.71011719 -4.89257812 22.13769531 C-7.93143304 17.61234171 -8.38841888 13.84782821 -8.27929688 8.44628906 C-8.26125 7.28484375 -8.24320312 6.12339844 -8.22460938 4.92675781 C-8.20140625 4.04632813 -8.17820312 3.16589844 -8.15429688 2.25878906 C-5.3080558 0.64980541 -3.26340447 0.00734038 0 0 Z " fill="#5994C8" transform="translate(365.154296875,135.7412109375)"/>
<path d="M0 0 C1.90205956 -0.00922989 1.90205956 -0.00922989 3.84254456 -0.01864624 C5.21787241 -0.00485043 6.59319302 0.00968354 7.96850586 0.02490234 C9.38667127 0.02728865 10.80483988 0.0281917 12.2230072 0.02767944 C15.18956403 0.03080157 18.15563555 0.04732208 21.12207031 0.07421875 C24.92074383 0.10822912 28.71888556 0.11584609 32.51769352 0.11432838 C35.44397539 0.11487268 38.37014149 0.12584877 41.29638481 0.14033127 C42.69698651 0.14668562 44.0976013 0.15063497 45.49821663 0.15211868 C47.45589046 0.15646424 49.4135147 0.17556519 51.37109375 0.1953125 C53.04057823 0.20674789 53.04057823 0.20674789 54.74378967 0.21841431 C57.62044657 0.48580238 59.24159017 0.881721 61.62084961 2.48583984 C63.94834306 5.97708001 64.12384277 7.37806235 63.62084961 11.48583984 C61.44106826 14.40061967 60.24799025 15.37957555 56.62316895 15.99377441 C54.86921814 15.99854797 54.86921814 15.99854797 53.07983398 16.00341797 C52.10836174 16.01393188 52.10836174 16.01393188 51.11726379 16.0246582 C48.98260249 16.0422221 46.8492737 16.03062305 44.71459961 16.01708984 C43.22773993 16.01978527 41.74088197 16.02366811 40.25402832 16.02868652 C37.14029125 16.03457932 34.02701367 16.02602631 30.91333008 16.00732422 C26.92493873 15.98453399 22.93762402 15.99765836 18.94927216 16.02161407 C15.87969878 16.03607842 12.81038006 16.03146332 9.74079895 16.02110291 C8.27040987 16.01843734 6.79999757 16.02169946 5.32963562 16.03102112 C3.2730906 16.04119819 1.21828117 16.02567386 -0.83813477 16.00341797 C-2.0074353 16.0002356 -3.17673584 15.99705322 -4.38146973 15.99377441 C-8.01685455 15.37778564 -9.19948185 14.41611405 -11.37915039 11.48583984 C-11.94165039 7.98583984 -11.94165039 7.98583984 -11.37915039 4.48583984 C-7.71241358 0.72998468 -5.17581702 -0.01324427 0 0 Z " fill="#B2FBFE" transform="translate(91.379150390625,47.51416015625)"/>
<path d="M0 0 C4.5714698 -0.09943798 9.14229975 -0.17173349 13.71459961 -0.21972656 C15.26744565 -0.2397487 16.82021719 -0.26697517 18.37280273 -0.30175781 C20.61460832 -0.3506961 22.85541093 -0.37306168 25.09765625 -0.390625 C25.78336197 -0.41127014 26.46906769 -0.43191528 27.17555237 -0.45318604 C32.6245283 -0.45567979 35.60146829 1.03223675 40 4 C42.82046299 7.42838233 43.87859741 11.15018187 44.5 15.5 C43.67947852 21.24365036 41.97324057 25.40455464 37.41015625 29.09399414 C33.44212598 31.31180716 30.39073134 31.51848515 25.9765625 31.390625 C25.23038666 31.38496521 24.48421082 31.37930542 23.71542358 31.37347412 C21.35127363 31.35122898 18.98868541 31.30105984 16.625 31.25 C15.01434493 31.22991944 13.40366591 31.2116714 11.79296875 31.1953125 C7.86138493 31.15140381 3.93095648 31.08246318 0 31 C3 29 3 29 5.5 27.75 C8.78798355 25.44841151 9.68676486 23.80147014 11 20 C11.66624925 15.00313065 11.53815321 11.18393705 9.4375 6.5625 C6.42893569 3.39965034 4.09294562 2.41678887 0 1 C0 0.67 0 0.34 0 0 Z " fill="#4C87BD" transform="translate(361,481)"/>
<path d="M0 0 C5.61 0 11.22 0 17 0 C17 0.99 17 1.98 17 3 C17.7425 3.185625 18.485 3.37125 19.25 3.5625 C22.99690536 5.52110962 24.57039373 8.13309569 26 12 C26.46064414 15.6650792 26.3810226 19.25122942 26.25 22.9375 C26.23195313 23.90751953 26.21390625 24.87753906 26.1953125 25.87695312 C26.14850667 28.25234894 26.08296385 30.62563844 26 33 C24.515 32.505 24.515 32.505 23 32 C21.08234406 31.85060226 19.16053478 31.75189717 17.23828125 31.68359375 C15.56088867 31.62075195 15.56088867 31.62075195 13.84960938 31.55664062 C12.68236328 31.51732422 11.51511719 31.47800781 10.3125 31.4375 C8.54422852 31.37272461 8.54422852 31.37272461 6.74023438 31.30664062 C3.82694117 31.20048824 0.91356243 31.09843758 -2 31 C-1.84152588 30.46987305 -1.68305176 29.93974609 -1.51977539 29.39355469 C-0.88524553 26.47155808 -0.78228868 23.69217153 -0.68359375 20.703125 C-0.64169922 19.49785156 -0.59980469 18.29257813 -0.55664062 17.05078125 C-0.51732422 15.79652344 -0.47800781 14.54226562 -0.4375 13.25 C-0.39431641 11.98027344 -0.35113281 10.71054688 -0.30664062 9.40234375 C-0.20060345 6.2683562 -0.09980152 3.13419232 0 0 Z " fill="#5692C8" transform="translate(455,107)"/>
<path d="M0 0 C0.33 0 0.66 0 1 0 C1.11690073 4.49977884 1.18748837 8.99916287 1.25 13.5 C1.30027344 15.40265625 1.30027344 15.40265625 1.3515625 17.34375 C1.42858027 24.73745591 1.12106859 29.77344 -3 36 C-5.28190242 38.11890939 -7.23346539 39.61673269 -10 41 C2.87 41.495 2.87 41.495 16 42 C16 42.33 16 42.66 16 43 C5.11 43 -5.78 43 -17 43 C-17.33 39.37 -17.66 35.74 -18 32 C-18.99 31.34 -19.98 30.68 -21 30 C-20.76726645 28.62197239 -20.51274601 27.24762141 -20.25 25.875 C-20.11078125 25.10929687 -19.9715625 24.34359375 -19.828125 23.5546875 C-17.76347621 17.18544077 -13.24495985 13.10089098 -8.375 8.8125 C-3.79403356 4.77220639 -3.79403356 4.77220639 0 0 Z " fill="#4AD4E4" transform="translate(423,106)"/>
</svg>
